<svg width="647" height="514" viewBox="0 0 647 514" fill="none" xmlns="http://www.w3.org/2000/svg">
    <path opacity="0.3" d="M597.952 141.12L596.369 140.205L596.18 140.096L564.982 122.084L596.18 140.096L642.682 113.249L596.18 86.4024L549.678 113.248L547.907 112.224L596.18 84.3564L596.621 84.6124L646.225 113.249L597.952 141.12ZM594.409 141.12L579.105 132.284L594.409 141.12Z" fill="#D1EBFA"/>
    <path opacity="0.3" d="M501.448 141.12L524.699 127.696L501.45 141.12H501.448ZM497.905 141.12L471.763 126.026L497.906 141.12H497.905ZM499.677 140.096L476.426 126.672L499.677 140.096L527.876 123.815L499.677 140.096ZM546.177 113.249L499.677 86.4024L462.73 107.734V105.688L499.677 84.3564L547.95 112.226L546.177 113.249Z" fill="#D1EBFA"/>
    <path opacity="0.3" d="M549.68 168.772L581.796 150.23L549.683 168.772H549.68ZM547.911 167.748L501.407 140.901L499.766 139.952L499.636 139.877L527.835 123.596L546.137 113.03L547.909 112.007L549.68 113.03L564.984 121.867L596.182 139.879L594.411 140.903L579.107 132.066L547.909 114.054L524.658 127.477L501.407 140.901L547.911 167.748L564.63 158.096L547.911 167.748ZM597.954 140.903L596.625 140.135L596.37 139.988L597.954 140.903Z" fill="#D1EBFA"/>
    <path opacity="0.3" d="M597.954 196.887L596.181 195.865L549.676 169.018L548.104 168.11L547.907 167.995L564.627 158.342L594.407 141.149L596.178 140.125L596.367 140.234L596.621 140.381L597.951 141.149L646.225 169.02L597.954 196.887ZM549.676 169.018L596.181 195.865L642.682 169.02L596.178 142.171L581.793 150.477L549.676 169.018Z" fill="#D1EBFA"/>
    <path d="M418.738 95.2202H418.736L420.508 94.198L418.738 95.2202Z" fill="#D1EBFA"/>
    <path opacity="0.3" d="M462.73 163.276L476.426 155.369L462.73 163.276ZM462.73 161.23L469.706 157.204L462.73 161.23ZM501.448 140.923L500.119 140.155L499.807 139.974L501.448 140.923ZM497.906 140.923L471.763 125.828L462.73 120.614V118.568L476.426 126.475L499.677 139.899L497.905 140.923" fill="#D1EBFA"/>
    <path opacity="0.3" d="M501.45 196.889L521.808 185.136L501.451 196.891L501.45 196.889ZM499.679 195.867L462.73 174.536L499.679 195.867L530.25 178.216L499.679 195.867ZM549.721 169.02L548.391 168.252L548.148 168.111L549.721 169.02ZM546.179 169.02L499.677 142.171L476.426 155.596L462.73 163.503V161.457L469.706 157.43L497.905 141.149L499.677 140.125L499.807 140.201L500.119 140.381L501.448 141.149L547.951 167.996L546.179 169.018" fill="#D1EBFA"/>
    <path opacity="0.3" d="M549.681 224.539L563.053 216.819L549.681 224.539ZM547.909 223.517L501.407 196.67V196.668L499.856 195.773L499.636 195.646L530.207 177.996L546.137 168.798L547.909 167.776L548.106 167.891L548.349 168.032L549.678 168.799L596.182 195.646L594.411 196.668L547.909 169.822L521.766 184.916L501.407 196.668L547.911 223.517L571.16 210.093L547.911 223.517" fill="#D1EBFA"/>
    <path opacity="0.3" d="M597.952 252.189L596.46 251.327L596.18 251.166L549.678 224.319L548.126 223.423L547.907 223.296L571.157 209.872L594.407 196.448L596.18 195.426L597.952 196.448L646.225 224.32L597.952 252.189ZM549.678 224.319L596.18 251.166L642.682 224.32L596.18 197.472L563.05 216.599L549.678 224.319Z" fill="#D1EBFA"/>
    <path d="M370.467 123.339H370.465L372.238 122.317L370.467 123.339Z" fill="#D1EBFA"/>
    <path opacity="0.3" d="M462.73 219.047L469.108 215.364L462.73 219.047ZM462.73 217.001V216.999L477.549 208.444L462.73 217.001ZM501.45 196.692L500.12 195.924L499.898 195.794L501.45 196.69V196.692ZM497.908 196.69L462.73 176.383V174.337L499.679 195.668L497.906 196.69" fill="#D1EBFA"/>
    <path opacity="0.3" d="M501.451 252.189L524.702 238.767L501.453 252.189H501.451ZM499.681 251.167V251.166L462.73 229.834L499.681 251.166L525.824 236.073L499.681 251.167ZM549.724 224.319L548.395 223.552L548.172 223.423L549.724 224.319ZM546.181 224.319L499.679 197.472L469.108 215.122L462.73 218.805V216.759L477.549 208.202L497.906 196.448L499.679 195.426L499.898 195.552L500.12 195.682L501.45 196.45L547.951 223.296L546.181 224.319Z" fill="#D1EBFA"/>
    <path opacity="0.3" d="M549.681 280.308L577.88 264.027L549.681 280.308ZM547.909 279.286L501.407 252.438L499.915 251.575L499.636 251.415L525.78 236.321L546.137 224.567L547.909 223.545L548.128 223.671L548.351 223.801L549.68 224.567L596.182 251.415L594.411 252.438L547.909 225.591L524.658 239.015L501.407 252.438L547.911 279.284L571.16 265.862L547.911 279.284L547.909 279.286ZM597.954 252.438L596.625 251.671L596.462 251.575L597.954 252.438Z" fill="#D1EBFA"/>
    <path opacity="0.3" d="M597.952 307.96L596.409 307.069L596.18 306.936L549.678 280.089L548.205 279.238L547.907 279.065L571.157 265.643L594.407 252.219L596.178 251.195L596.458 251.356L596.621 251.452L597.951 252.219L646.225 280.089L597.952 307.96ZM549.678 280.089L596.18 306.936L642.682 280.089L596.178 253.242L577.877 263.808L549.678 280.089Z" fill="#D1EBFA"/>
    <path opacity="0.3" d="M211.787 141.118L241.568 123.925L211.787 141.118ZM210.015 140.095L163.513 113.248L161.902 112.317L161.742 112.224L210.015 84.3564L210.456 84.6124L246.97 105.693V107.737L210.015 86.4024L163.513 113.248L210.016 140.095L224.402 131.789L210.016 140.095" fill="#D1EBFA"/>
    <path opacity="0.3" d="M246.966 163.286L241.211 159.962L246.966 163.284V163.286ZM246.966 161.24L227.087 149.761L246.966 161.238V161.24ZM211.784 140.926L210.013 139.902L224.398 131.597L246.966 118.568V120.614L241.564 123.733L211.784 140.926Z" fill="#D1EBFA"/>
    <path opacity="0.3" d="M462.73 274.816L482.961 263.137L462.73 274.816ZM462.73 272.77L472.047 267.392L462.73 272.77ZM501.451 252.461L500.122 251.695L499.959 251.599L501.451 252.461ZM497.91 252.461L462.73 232.152V230.106L499.681 251.439L497.908 252.461" fill="#D1EBFA"/>
    <path opacity="0.3" d="M501.453 307.96L527.351 293.008L501.454 307.96H501.453ZM497.91 307.96L474.659 294.536L497.911 307.96H497.91ZM499.682 306.936L484.378 298.1L499.682 306.936L515.611 297.74L499.682 306.936ZM549.725 280.089L548.396 279.321L548.252 279.238L549.725 280.089ZM546.182 280.089L499.681 253.242L482.961 262.895L462.73 274.574V272.528L472.047 267.15L497.908 252.219L499.681 251.195V251.196L499.959 251.356L500.122 251.452L501.451 252.219L547.953 279.067L546.182 280.089Z" fill="#D1EBFA"/>
    <path opacity="0.3" d="M549.682 336.079L570.04 324.324L549.682 336.079ZM547.911 335.055L501.407 308.208L499.755 307.253L499.636 307.184L515.566 297.988L546.137 280.337L547.909 279.313L548.207 279.486L548.351 279.569L549.68 280.337L596.182 307.184L594.411 308.208L547.909 281.361L527.306 293.256L501.407 308.208L547.911 335.055L571.16 321.631L547.911 335.055ZM597.954 308.208L596.625 307.44L596.41 307.317L597.954 308.208Z" fill="#D1EBFA"/>
    <path opacity="0.3" d="M597.952 363.729L596.34 362.798L596.18 362.705L549.678 335.858L548.067 334.927L547.907 334.835L571.157 321.41L594.407 307.988L596.178 306.964L596.407 307.097L596.621 307.22L597.951 307.988L646.225 335.858L597.952 363.729ZM549.678 335.858L596.18 362.705L642.682 335.858L596.178 309.01L570.037 324.104L549.678 335.858Z" fill="#D1EBFA"/>
    <path opacity="0.3" d="M115.259 141.12L138.51 127.696L115.26 141.12H115.259ZM111.717 141.12L63.4429 113.249L113.486 84.3564L113.929 84.6124L161.76 112.226L159.988 113.249L113.486 86.4024L66.9861 113.249L113.488 140.096L136.739 126.674L113.488 140.096L111.717 141.12ZM163.531 113.249L162.202 112.481L161.92 112.318L163.531 113.249Z" fill="#D1EBFA"/>
    <path opacity="0.3" d="M163.516 168.772L186.767 155.347L163.516 168.772ZM161.746 167.748L113.913 140.133L113.471 139.877L136.722 126.455L159.972 113.03L161.744 112.007L161.904 112.099L162.186 112.263L163.515 113.03L210.017 139.877L208.246 140.901L161.744 114.054L138.493 127.477L115.242 140.901L161.746 167.748L184.995 154.324L161.746 167.748Z" fill="#D1EBFA"/>
    <path opacity="0.3" d="M211.787 196.891V196.889L241.494 179.739L211.787 196.891ZM210.015 195.867L163.513 169.02L161.902 168.089L161.742 167.996L184.991 154.572L208.242 141.149L210.015 140.125L211.785 141.149L227.089 149.984L246.968 161.463V163.508L241.213 160.185L210.015 142.171L186.764 155.596L163.513 169.02L210.015 195.867L235.879 180.936L210.016 195.867" fill="#D1EBFA"/>
    <path opacity="0.3" d="M246.966 219.053L233.265 211.141L246.966 219.053ZM246.966 217.007L242.983 214.707L246.966 217.007ZM211.785 196.693L210.013 195.671L235.877 180.74L246.966 174.337V176.383L241.492 179.544L211.785 196.693Z" fill="#D1EBFA"/>
    <path opacity="0.3" d="M451.354 335.078L434.026 325.076L451.354 335.078L458.085 331.193L451.355 335.078H451.354ZM463.559 330.078L469.919 326.406L463.559 330.078ZM462.852 328.441H462.85L483.468 316.538L462.852 328.441ZM501.397 308.233L500.068 307.465L499.744 307.278L501.397 308.233ZM497.855 308.233L474.603 294.809L462.674 287.92V285.875L484.322 298.373L499.626 307.209L497.854 308.233" fill="#D1EBFA"/>
    <path opacity="0.3" d="M501.411 363.729L524.662 350.306L501.412 363.729H501.411ZM497.868 363.729L468.861 346.981L497.869 363.729H497.868ZM499.64 362.705L484.336 353.869L499.64 362.705L527.839 346.426L499.64 362.705ZM549.684 335.858L548.353 335.09L548.073 334.927L549.684 335.858ZM546.14 335.858L499.638 309.01L469.931 326.161L463.571 329.832C463.421 329.261 463.182 328.713 462.864 328.196L483.48 316.293L497.866 307.988L499.638 306.964L499.757 307.033L500.08 307.22L501.409 307.988L547.913 334.835L546.14 335.858ZM452.514 335.497L451.366 334.833L458.097 330.947C458.212 331.088 458.268 331.21 458.268 331.301C458.268 331.65 457.769 332.457 456.395 333.251L452.514 335.497Z" fill="#D1EBFA"/>
    <path opacity="0.3" d="M549.681 391.846L570.285 379.951L549.681 391.848V391.846ZM547.909 390.824L501.407 363.977L499.753 363.022L499.636 362.953L527.835 346.674L546.137 336.106L547.909 335.083L548.069 335.175L548.349 335.338L549.68 336.106L596.182 362.953L594.411 363.975L547.909 337.128L524.658 350.554L501.407 363.977L547.911 390.824L578.576 373.119L547.911 390.824H547.909ZM597.954 363.977L596.625 363.209L596.342 363.046L597.954 363.977Z" fill="#D1EBFA"/>
    <path opacity="0.3" d="M597.952 419.496L596.529 418.674L596.18 418.474L549.678 391.627V391.626L548.15 390.744L547.907 390.603L578.572 372.898L594.407 363.755L596.178 362.733L596.338 362.825L596.621 362.989L597.951 363.756L646.225 391.626L597.952 419.496ZM549.678 391.626L596.18 418.474L642.682 391.626L596.178 364.779L570.282 379.731L549.678 391.626Z" fill="#D1EBFA"/>
    <path opacity="0.3" d="M115.259 196.889L141.402 181.796L115.26 196.891L115.259 196.889ZM111.717 196.889L63.4429 169.02L111.715 141.149L113.486 140.125L113.928 140.381L161.76 167.996L159.988 169.02L113.486 142.171L66.9861 169.02L113.488 195.867L144.155 178.162L113.488 195.867L111.717 196.889ZM163.531 169.02L162.202 168.252L161.92 168.089L163.531 169.02Z" fill="#D1EBFA"/>
    <path opacity="0.3" d="M163.516 224.539L179.351 215.397L163.516 224.539ZM161.746 223.517L113.913 195.902L113.471 195.646L144.138 177.941L159.972 168.799L161.744 167.776L161.904 167.868L162.186 168.032L163.515 168.799L210.017 195.646L208.246 196.668L161.744 169.822L141.385 181.576L115.242 196.668L161.746 223.517L182.104 211.763L161.746 223.517Z" fill="#D1EBFA"/>
    <path opacity="0.3" d="M211.787 252.189L228.507 242.537L211.787 252.189ZM210.015 251.167L163.513 224.32V224.319L161.961 223.423L161.742 223.296L182.101 211.542L208.242 196.448L210.013 195.426L211.785 196.448V196.45L242.983 214.462L246.966 216.762V218.808L233.265 210.896L210.013 197.472L179.348 215.177L163.513 224.319L210.016 251.167L235.641 236.372L210.016 251.167" fill="#D1EBFA"/>
    <path opacity="0.3" d="M246.963 272.772L211.784 252.461L210.291 251.6L210.013 251.439L235.638 236.643L246.963 230.106V232.152L228.503 242.809L211.784 252.461L246.963 272.772Z" fill="#D1EBFA"/>
    <path d="M449.597 335.799L432.268 325.795L434.04 324.772L451.368 334.775L449.597 335.799Z" fill="#D1EBFA"/>
    <path opacity="0.3" d="M453.139 391.846L476.388 378.423L453.139 391.848V391.846ZM451.367 390.824L425.766 376.043L451.367 390.824L470.433 379.817L451.367 390.824ZM501.41 363.979L500.081 363.211L499.756 363.024L501.41 363.979ZM497.868 363.979L468.86 347.23L456.234 339.941L458.005 338.915L484.335 354.118L499.639 362.955L497.867 363.977L497.868 363.979ZM443.4 341.022L442.241 340.352L449.594 336.106L451.365 335.083L452.514 335.746L443.4 341.022Z" fill="#D1EBFA"/>
    <path opacity="0.3" d="M501.412 419.495L527.037 404.701L501.412 419.495ZM499.64 418.472L453.137 391.626L453.138 391.624L451.526 390.695L451.366 390.602L470.432 379.595L497.866 363.756V363.755L499.638 362.733L499.755 362.801L500.08 362.989L501.409 363.756L547.911 390.603L546.14 391.626L499.638 364.779L476.388 378.201L453.138 391.624L499.64 418.472L516.433 408.777L499.64 418.472ZM549.683 391.627L548.354 390.859L548.156 390.744L549.683 391.626" fill="#D1EBFA"/>
    <path d="M549.68 447.615L567.983 437.049L549.68 447.615ZM546.138 447.615L530.834 438.779L546.138 447.615ZM547.911 446.593L516.711 428.579L547.911 446.591L571.16 433.169L547.911 446.593ZM597.954 419.744L596.625 418.978L596.53 418.922L597.954 419.744ZM594.411 419.744L547.909 392.897L527.034 404.949L501.407 419.743L499.636 418.721L516.43 409.025L546.137 391.874L547.909 390.852L548.152 390.992L548.351 391.108L549.68 391.875L596.182 418.722L594.411 419.744Z" fill="#D1EBFA"/>
    <path opacity="0.3" d="M596.18 476.289L595.738 476.031L547.907 448.418L549.676 447.395L547.907 446.372L571.156 432.948L594.407 419.524L596.178 418.502L596.527 418.702L596.621 418.758L597.951 419.524L646.225 447.395L596.18 476.289ZM549.676 447.395L596.18 474.241L642.682 447.395L596.178 420.548L567.98 436.829L549.676 447.395Z" fill="#D1EBFA"/>
    <path opacity="0.3" d="M115.259 252.189L138.51 238.767L115.26 252.189H115.259ZM111.715 252.189L63.4429 224.317L111.715 196.448L113.486 195.426L113.928 195.682L161.76 223.296L159.988 224.319L113.486 197.472L66.9861 224.317L113.488 251.167L136.739 237.743L113.488 251.167L111.715 252.189ZM163.531 224.32L162.202 223.552L161.98 223.423L163.531 224.319" fill="#D1EBFA"/>
    <path opacity="0.3" d="M163.516 280.308L186.767 266.884L163.516 280.308ZM161.744 279.286L113.913 251.671L113.471 251.415L136.722 237.991L159.972 224.567L161.744 223.545L161.963 223.671L162.186 223.801L163.515 224.568L210.017 251.415L208.246 252.438L161.744 225.591L138.493 239.015L115.242 252.438L161.746 279.284L184.995 265.862L161.746 279.286V279.284L161.744 279.286ZM211.789 252.438L210.46 251.671L210.297 251.577L211.789 252.438Z" fill="#D1EBFA"/>
    <path opacity="0.3" d="M211.787 307.958L242.358 290.308L211.787 307.958ZM210.016 306.935H210.015L163.513 280.088L162.017 279.224L161.742 279.066L184.991 265.641L208.242 252.217L210.015 251.195L210.293 251.356L210.456 251.451L211.785 252.217L246.965 272.528V274.574L210.015 253.241L186.764 266.663L163.513 280.088L210.015 306.935L230.618 295.04L210.016 306.935Z" fill="#D1EBFA"/>
    <path opacity="0.3" d="M260.058 336.102L273.234 328.494L260.058 336.102ZM258.285 335.078L256.62 334.117L258.285 335.078L271.462 327.472H271.463L258.285 335.078ZM251.335 331.066L211.784 308.231L210.171 307.3L210.013 307.207L230.615 295.312L246.961 285.875V287.92L242.354 290.581L211.784 308.231L251.336 331.066H251.335Z" fill="#D1EBFA"/>
    <path d="M260.056 336.214L258.283 335.191L271.461 327.584L273.232 328.606L260.056 336.214Z" fill="#D1EBFA"/>
    <path opacity="0.3" d="M404.865 419.529L428.116 406.106L404.865 419.529ZM403.092 418.506L377.554 403.761L403.092 418.506L426.343 405.082L403.094 418.506H403.092ZM453.136 391.66L451.808 390.892L451.525 390.729L453.137 391.658L453.136 391.66ZM449.594 391.658L423.995 376.879L425.764 375.855L451.365 390.636L449.594 391.658Z" fill="#D1EBFA"/>
    <path opacity="0.3" d="M451.368 448.639V448.637V448.639ZM453.14 447.615L476.39 434.192L453.14 447.615ZM451.368 446.593L404.866 419.744L403.254 418.815L403.095 418.722L426.344 405.298L449.595 391.874L451.366 390.852L451.526 390.944L451.809 391.108L453.137 391.875L499.64 418.722L497.868 419.744L451.366 392.898L428.117 406.322L404.866 419.744L451.368 446.593L479.568 430.312L451.368 446.593Z" fill="#D1EBFA"/>
    <path opacity="0.3" d="M499.64 476.289L499.197 476.031L451.366 448.418V448.417L453.138 447.395L451.366 446.372L479.566 430.091L497.866 419.524L499.638 418.502L501.411 419.524L516.713 428.36L547.913 446.374L549.682 447.396L547.913 448.42H547.911L499.64 476.289ZM453.138 447.395L499.64 474.241L546.14 447.396L530.836 438.56L499.638 420.548L476.388 433.972L453.138 447.395Z" fill="#D1EBFA"/>
    <path opacity="0.3" d="M115.259 307.958L148.387 288.831L115.26 307.958H115.259ZM111.715 307.958L63.4429 280.086L111.714 252.217L113.486 251.195L113.928 251.451L161.759 279.066L159.988 280.088L113.486 253.241L66.9861 280.086L113.488 306.935L129.323 297.793L113.488 306.935L111.715 307.958ZM163.531 280.088L162.202 279.321L162.036 279.224L163.531 280.088Z" fill="#D1EBFA"/>
    <path d="M163.516 336.079L186.767 322.654L163.516 336.079ZM161.746 335.055L113.913 307.44L113.471 307.184L129.306 298.042L159.972 280.337L161.744 279.313V279.315L162.019 279.473L162.186 279.571L163.515 280.337L210.017 307.184L208.246 308.208L161.744 281.361L148.371 289.081L115.242 308.208L161.746 335.055L180.047 324.489L161.746 335.055ZM211.789 308.208L210.46 307.44L210.177 307.277L211.789 308.208Z" fill="#D1EBFA"/>
    <path opacity="0.3" d="M211.787 363.729L235.038 350.305L211.787 363.729ZM210.015 362.705L163.513 335.858L161.902 334.927L161.742 334.835L180.044 324.269L208.242 307.988L210.013 306.964H210.015L210.173 307.057L210.456 307.22L211.785 307.988L251.337 330.823C250.858 331.239 250.438 331.68 250.079 332.141L210.013 309.011L186.764 322.434L163.513 335.858L210.015 362.705L228.316 352.14L210.016 362.705H210.015ZM256.516 335.858L254.954 334.956C255.217 334.731 255.547 334.495 255.953 334.26L256.622 333.873L258.287 334.835L256.516 335.858Z" fill="#D1EBFA"/>
    <path opacity="0.3" d="M260.058 391.846L275.987 382.65L260.058 391.848V391.846ZM256.513 391.846L235.911 379.951L256.514 391.846H256.513ZM258.285 390.824L227.62 373.119L258.285 390.824L281.419 377.467L258.285 390.824ZM211.785 363.977L210.013 362.953L228.314 352.388L249.775 339.997C250.124 340.47 250.545 340.913 251.033 341.316L235.036 350.553L211.785 363.977ZM270.822 344.367L258.285 337.128L256.406 338.215L255 337.402C254.87 337.328 254.755 337.253 254.654 337.18L256.514 336.106L258.285 335.083L260.058 336.106L272.591 343.343L270.822 344.367Z" fill="#D1EBFA"/>
    <path opacity="0.3" d="M308.33 419.511L329.204 407.459L308.33 419.511ZM306.557 418.488L260.054 391.642L260.056 391.64L258.48 390.731L258.283 390.618L281.417 377.261L283.188 378.284L275.985 382.444L260.056 391.64L306.557 418.488L329.692 405.133L306.557 418.488Z" fill="#D1EBFA"/>
    <path d="M354.828 448.636V448.634V448.636ZM356.599 447.612L382.742 432.519L356.599 447.612ZM353.056 447.612L321.858 429.6L353.056 447.612ZM354.828 446.59L337.333 436.488L354.828 446.59L378.077 433.166L354.828 446.59ZM404.872 419.741L403.542 418.975L403.259 418.812L404.872 419.741ZM401.328 419.741L375.792 404.997L377.561 403.974L403.099 418.719L401.328 419.741ZM308.326 419.74L306.554 418.718L329.688 405.362L331.459 406.384L329.2 407.688L308.325 419.74" fill="#D1EBFA"/>
    <path opacity="0.3" d="M403.097 476.289L402.656 476.031L354.825 448.418V448.417L356.596 447.395L354.825 446.372L378.074 432.948L401.325 419.524L403.096 418.502H403.097L403.256 418.595L403.539 418.758L404.868 419.524L451.37 446.372L453.142 447.395L451.37 448.417V448.418L403.097 476.289ZM356.596 447.395L403.097 474.241L449.599 447.395L403.096 420.548L382.739 432.302L356.596 447.395Z" fill="#D1EBFA"/>
    <path opacity="0.3" d="M115.26 363.727L132.053 354.034L115.26 363.727ZM111.717 363.726L63.4429 335.857L111.714 307.988L113.486 306.964L113.928 307.22L161.76 334.835L159.988 335.858L113.486 309.011L66.9861 335.857L113.488 362.704L143.193 345.554L113.488 362.704L111.717 363.726ZM163.531 335.858L162.202 335.09L161.92 334.927L163.531 335.858Z" fill="#D1EBFA"/>
    <path opacity="0.3" d="M163.516 391.846L179.446 382.65L163.516 391.848V391.846ZM159.973 391.846L136.722 378.422L159.973 391.846ZM161.746 390.824L138.495 377.4L161.746 390.824L192.317 373.173L161.746 390.824ZM208.246 363.977L161.744 337.128L132.037 354.281L115.242 363.975L113.471 362.952L143.177 345.802L159.972 336.106L161.744 335.083L161.904 335.175L162.186 335.338L163.515 336.106L210.017 362.953L208.246 363.975" fill="#D1EBFA"/>
    <path opacity="0.3" d="M211.787 419.496L235.036 406.074L211.787 419.496ZM210.015 418.474L163.513 391.627V391.625L161.929 390.712L161.742 390.603L192.313 372.953L208.242 363.755L210.013 362.733L211.785 363.756L227.62 372.898L258.286 390.603L256.515 391.625L235.911 379.73L210.013 364.779L179.442 382.429L163.513 391.625L210.015 418.474L233.265 405.05L210.016 418.474H210.015ZM260.056 391.627L258.729 390.859L258.482 390.717L260.058 391.625" fill="#D1EBFA"/>
    <path opacity="0.3" d="M256.515 447.615L238.213 437.049L256.515 447.615ZM260.058 447.615L278.359 437.049L260.058 447.615ZM258.285 446.593L235.036 433.169L258.285 446.591L281.536 433.169L258.285 446.593ZM304.787 419.744L258.284 392.897L235.035 406.322L211.785 419.744L210.013 418.722L233.264 405.298L256.511 391.874H256.513L258.284 390.852L258.481 390.965L258.727 391.107L260.055 391.875L306.558 418.722L304.786 419.744" fill="#D1EBFA"/>
    <path opacity="0.3" d="M306.558 476.289L306.116 476.033L258.283 448.418L260.056 447.395L258.283 446.372L281.534 432.948L304.784 419.524L306.556 418.502L308.328 419.524L337.335 436.272L354.83 446.374L356.601 447.396L354.83 448.418L354.829 448.42L306.558 476.289ZM260.056 447.395L306.558 474.241L353.058 447.396L321.86 429.384L306.556 420.548L278.357 436.829L260.056 447.395Z" fill="#D1EBFA"/>
    <path opacity="0.3" d="M115.259 419.496L147.373 400.956L115.26 419.496H115.259ZM111.717 419.496L63.4429 391.626L111.715 363.755L113.486 362.733L115.259 363.756L138.51 377.181L161.759 390.605L159.988 391.627L136.737 378.203L113.486 364.779L66.9861 391.626L113.488 418.474L130.207 408.822L113.488 418.474L111.717 419.496ZM163.531 391.629L162.202 390.861L161.948 390.714L163.531 391.627" fill="#D1EBFA"/>
    <path opacity="0.3" d="M161.746 448.637H161.744H161.746ZM163.516 447.613L193.299 430.42L163.516 447.613ZM161.746 446.591L113.913 418.977L113.471 418.721L130.191 409.068L159.972 391.874L161.744 390.852L161.931 390.96L162.186 391.107L163.515 391.875L210.017 418.722L208.246 419.744L161.744 392.897L147.357 401.203L115.242 419.743L161.746 446.591L176.131 438.286L161.746 446.591Z" fill="#D1EBFA"/>
    <path opacity="0.3" d="M210.013 476.289L161.742 448.417L163.513 447.393L161.742 446.371L176.128 438.065L208.242 419.524L210.013 418.502L211.785 419.524L235.036 432.948L258.286 446.372L260.058 447.395L258.286 448.418L210.013 476.289ZM163.513 447.393L210.013 474.241L256.515 447.395L238.213 436.829L210.013 420.548L193.295 430.2L163.513 447.393Z" fill="#D1EBFA"/>
    <path opacity="0.3" d="M113.488 476.289L113.046 476.031L63.4429 447.395L111.715 419.524L113.486 418.502L113.928 418.758L161.76 446.372L163.531 447.395L161.76 448.418H161.759L113.488 476.289ZM113.486 420.548L66.9861 447.395L113.488 474.241L159.988 447.395L113.486 420.548Z" fill="#D1EBFA"/>
    <path d="M63.9251 327.009C62.9797 327.554 62.0679 328.236 61.1977 329.007C60.8202 316.736 51.955 311.854 41.047 318.152C32.1625 323.282 24.6346 334.263 21.9376 345.027C19.7428 344.731 17.1674 345.302 14.4 346.9C6.44658 351.493 0 362.659 0 371.841C0 381.024 6.44658 384.745 14.4 380.154L63.9251 351.562C69.7974 348.171 74.5564 339.928 74.5564 333.147C74.5564 326.367 69.7974 323.619 63.9251 327.009Z" fill="white"/>
    <path d="M448.11 402.151C448.11 405.131 446.02 408.749 443.44 410.24C440.862 411.729 438.771 410.522 438.771 407.543C438.771 404.566 440.862 400.944 443.44 399.457C446.02 397.968 448.11 399.174 448.11 402.151Z" fill="white"/>
    <path d="M463.224 393.248C463.224 396.226 461.134 399.846 458.554 401.336C455.976 402.825 453.885 401.617 453.885 398.639C453.885 395.662 455.976 392.04 458.554 390.552C461.134 389.063 463.224 390.269 463.224 393.248Z" fill="white"/>
    <path d="M478.396 384.812C478.396 387.791 476.307 391.411 473.726 392.9C471.148 394.389 469.057 393.181 469.057 390.204C469.057 387.226 471.148 383.606 473.726 382.117C476.307 380.627 478.396 381.834 478.396 384.812Z" fill="white"/>
    <path d="M493.51 375.909C493.51 378.886 491.419 382.508 488.841 383.995C486.262 385.485 484.171 384.277 484.171 381.3C484.171 378.321 486.262 374.701 488.841 373.212C491.419 371.723 493.51 372.93 493.51 375.909Z" fill="white"/>
    <path d="M230.13 485.57C230.13 488.549 228.04 492.17 225.461 493.66C222.882 495.147 220.792 493.94 220.792 490.963C220.792 487.986 222.882 484.364 225.461 482.875C228.04 481.387 230.13 482.593 230.13 485.57Z" fill="white"/>
    <path d="M243.018 478.074C243.018 481.051 240.927 484.673 238.349 486.16C235.768 487.65 233.679 486.442 233.679 483.465C233.679 480.486 235.768 476.866 238.349 475.377C240.927 473.888 243.018 475.096 243.018 478.074Z" fill="white"/>
    <path d="M230.13 470.573C230.13 473.55 228.04 477.172 225.461 478.662C222.882 480.15 220.792 478.944 220.792 475.965C220.792 472.989 222.882 469.367 225.461 467.879C228.04 466.39 230.13 467.596 230.13 470.573Z" fill="white"/>
    <path d="M243.018 463.546C243.018 466.523 240.927 470.145 238.349 471.633C235.768 473.122 233.679 471.914 233.679 468.937C233.679 465.959 235.768 462.339 238.349 460.849C240.927 459.36 243.018 460.566 243.018 463.546Z" fill="white"/>
    <path d="M186.839 112.948L177.5 118.339V107.556L186.839 102.165V112.948Z" fill="white"/>
    <path d="M199.787 105.45L190.446 110.841V100.058L199.787 94.6667V105.45Z" fill="white"/>
    <path d="M186.956 127.008L177.617 132.398V121.615L186.956 116.224V127.008Z" fill="white"/>
    <path d="M199.787 119.509L190.446 124.9V114.118L199.787 108.726V119.509Z" fill="white"/>
    <path d="M490.191 72.6288C486.796 72.6288 484.464 69.9222 484.464 65.2401C484.464 58.6415 489.098 50.6177 494.814 47.3176C496.468 46.3626 498.027 45.9147 499.413 45.9147C499.923 45.9147 500.411 45.9771 500.87 46.0955C500.742 45.0701 500.652 44.0095 500.652 42.8706C500.652 29.0784 510.337 12.3077 522.281 5.41001C525.745 3.41045 529.013 2.46506 531.911 2.46506C536.121 2.46506 539.548 4.46302 541.643 8.12462C543.729 5.60037 546.121 3.46644 548.668 1.99636C551.014 0.641461 553.23 0 555.194 0C559.883 0 563.132 3.6568 563.282 9.99461C564.648 8.38856 566.198 7.02566 567.844 6.07547C569.442 5.15407 570.951 4.71577 572.288 4.71577C575.553 4.71577 577.794 7.31839 577.794 11.8198C577.794 14.1953 577.168 16.7643 576.098 19.2134C575.311 14.2689 572.31 11.4679 568.209 11.4679C566.244 11.4679 564.027 12.1093 561.682 13.4642C559.136 14.9343 556.741 17.0683 554.657 19.5925C552.561 15.9309 549.135 13.9329 544.924 13.9329C542.026 13.9329 538.758 14.8783 535.294 16.8779C523.35 23.774 513.667 40.5463 513.667 54.3385C513.667 55.4774 513.757 56.538 513.885 57.5634C513.424 57.4434 512.936 57.3826 512.424 57.3826C511.041 57.3826 509.481 57.8289 507.827 58.7839C504.389 60.7707 501.34 64.4674 499.459 68.5337L494.814 71.2164C493.152 72.1746 491.582 72.6288 490.191 72.6288Z" fill="#C4E6F9"/>
    <path d="M503.196 83.8469C499.8 83.8469 497.469 81.1403 497.469 76.4581C497.469 73.8299 498.203 70.9762 499.449 68.2839L567.834 28.7998C571.272 26.8162 574.302 23.0555 576.088 18.9636C576.2 19.6706 576.269 20.4209 576.287 21.2127C577.654 19.6066 579.203 18.2437 580.849 17.2935C582.447 16.3705 583.955 15.9338 585.293 15.9338C588.558 15.9338 590.799 18.5365 590.799 23.0363C590.799 29.3821 586.344 37.0956 580.849 40.2677L507.817 82.4344C506.157 83.3926 504.587 83.8469 503.196 83.8469Z" fill="#DAF0FC"/>
    <path d="M499.46 68.3134C501.342 64.2471 504.391 60.5503 507.828 58.5636C509.482 57.6086 511.042 57.1623 512.426 57.1623C512.938 57.1623 513.425 57.2231 513.886 57.343C513.758 56.3177 513.669 55.2571 513.669 54.1181C513.669 40.326 523.351 23.5537 535.296 16.6576C538.759 14.658 542.027 13.7126 544.926 13.7126C549.136 13.7126 552.562 15.7106 554.658 19.3722C556.742 16.8479 559.137 14.714 561.684 13.2439C564.029 11.889 566.246 11.2476 568.21 11.2476C572.312 11.2476 575.313 14.0485 576.1 18.9931C574.313 23.085 571.283 26.8457 567.845 28.8293L499.46 68.3134Z" fill="#E3F4FD"/>
    <path d="M593.854 29.0382C592.206 29.99 590.66 31.3513 589.292 32.9589C589.077 23.9657 582.624 20.3713 574.676 24.9591C572.131 26.4292 569.736 28.5647 567.652 31.089C564.112 24.9047 556.784 23.4698 548.29 28.3744C536.343 35.2704 526.662 52.0428 526.662 65.8349C526.662 66.9739 526.75 68.0344 526.877 69.0598C525.175 68.6167 523.086 68.9734 520.82 70.2803C515.106 73.5804 510.474 81.6059 510.474 88.2044C510.474 94.8046 515.106 97.4792 520.82 94.1807L593.854 52.014C599.347 48.8419 603.802 41.1284 603.802 34.7825C603.802 28.4383 599.347 25.8677 593.854 29.0382Z" fill="white"/>
    <path d="M194.798 334.406H194.814H194.798ZM172 321.244V344.961L192.54 333.102V309.383L172 321.244ZM169.741 351.13C169.351 351.13 168.962 351.03 168.612 350.828C167.913 350.427 167.483 349.678 167.483 348.872V319.939C167.483 319.131 167.913 318.386 168.612 317.983L193.669 303.517C194.368 303.114 195.227 303.114 195.928 303.517C196.627 303.918 197.057 304.664 197.057 305.472V334.406C197.057 335.214 196.627 335.959 195.928 336.363L170.871 350.828C170.52 351.03 170.132 351.13 169.741 351.13Z" fill="white"/>
    <path opacity="0.3" d="M152.538 492.097L116.4 471.232L152.536 450.37L188.674 471.234L152.538 492.097Z" fill="#0030AD"/>
    <path d="M121.89 455.702L152.533 473.394L183.174 455.702L152.531 438.013L121.89 455.702ZM152.533 479.315C152.058 479.315 151.584 479.191 151.16 478.947L115.023 458.082C114.173 457.591 113.647 456.684 113.647 455.702C113.647 454.722 114.173 453.815 115.023 453.323L151.159 432.461C152.008 431.97 153.054 431.97 153.904 432.461L190.041 453.323C190.892 453.815 191.417 454.722 191.417 455.702C191.417 456.684 190.894 457.591 190.041 458.082L153.905 478.947C153.481 479.191 153.008 479.315 152.533 479.315Z" fill="white"/>
    <path fill-rule="evenodd" clip-rule="evenodd" d="M188.681 439.607L152.545 460.469V418.744L188.681 397.881V439.607Z" fill="url(#paint0_linear_60_385)"/>
    <path fill-rule="evenodd" clip-rule="evenodd" d="M152.536 418.517L116.4 397.655L152.535 376.792L188.671 397.655L152.536 418.517Z" fill="url(#paint1_linear_60_385)"/>
    <path fill-rule="evenodd" clip-rule="evenodd" d="M152.536 460.469L116.4 439.607V397.881L152.536 418.744V460.469Z" fill="url(#paint2_linear_60_385)"/>
    <path d="M139.51 437.881L129.405 432.047V420.376L139.51 426.212V437.881Z" fill="white"/>
    <path opacity="0.3" d="M557.155 267.615L521.018 246.751L557.151 225.888L593.291 246.751L557.155 267.615Z" fill="#0030AD"/>
    <path d="M526.508 230.752L557.149 248.442L587.79 230.752L557.146 213.063L526.508 230.752ZM557.149 254.363C556.676 254.363 556.201 254.239 555.775 253.993L519.639 233.132C518.79 232.641 518.265 231.732 518.265 230.752C518.265 229.771 518.79 228.864 519.639 228.373L555.775 207.51C556.624 207.019 557.671 207.019 558.522 207.51L594.659 228.373C595.509 228.864 596.033 229.771 596.033 230.752C596.033 231.732 595.509 232.641 594.659 233.132L558.523 253.993C558.096 254.239 557.624 254.363 557.149 254.363Z" fill="white"/>
    <path fill-rule="evenodd" clip-rule="evenodd" d="M593.299 214.656L557.163 235.52V193.795L593.299 172.931V214.656Z" fill="url(#paint3_linear_60_385)"/>
    <path fill-rule="evenodd" clip-rule="evenodd" d="M557.153 193.568L521.018 172.704L557.15 151.842L593.289 172.706L557.153 193.568Z" fill="url(#paint4_linear_60_385)"/>
    <path fill-rule="evenodd" clip-rule="evenodd" d="M557.153 235.52L521.018 214.656V172.931L557.153 193.795V235.52Z" fill="url(#paint5_linear_60_385)"/>
    <path d="M544.131 212.931L534.023 207.097V195.426L544.131 201.26V212.931Z" fill="white"/>
    <path d="M547.028 173.262L557.064 167.307L567.24 173.021L557.204 178.976L547.028 173.262Z" fill="white"/>
    <path opacity="0.3" d="M557.155 492.097L521.018 471.232L557.151 450.37L593.291 471.234L557.155 492.097Z" fill="#0030AD"/>
    <path d="M526.506 455.702L557.149 473.394L587.792 455.702L557.146 438.013L526.506 455.702ZM557.149 479.315C556.676 479.315 556.201 479.191 555.775 478.947L519.639 458.082C518.79 457.591 518.265 456.684 518.265 455.702C518.265 454.722 518.79 453.815 519.639 453.323L555.775 432.461C556.624 431.97 557.671 431.97 558.522 432.461L594.659 453.323C595.509 453.815 596.033 454.722 596.033 455.702C596.033 456.684 595.51 457.591 594.659 458.082L558.523 478.947C558.096 479.191 557.624 479.315 557.149 479.315Z" fill="white"/>
    <path fill-rule="evenodd" clip-rule="evenodd" d="M593.299 439.607L557.163 460.469V418.744L593.299 397.881V439.607Z" fill="url(#paint6_linear_60_385)"/>
    <path fill-rule="evenodd" clip-rule="evenodd" d="M557.153 418.517L521.018 397.655L557.15 376.792L593.287 397.655L557.153 418.517Z" fill="url(#paint7_linear_60_385)"/>
    <path fill-rule="evenodd" clip-rule="evenodd" d="M557.153 460.469L521.018 439.607V397.881L557.153 418.744V460.469Z" fill="url(#paint8_linear_60_385)"/>
    <path d="M544.131 437.881L534.023 432.047V420.376L544.131 426.212V437.881Z" fill="white"/>
    <path opacity="0.3" d="M152.538 267.615L116.4 246.751L152.536 225.888L188.674 246.751L152.538 267.615Z" fill="#0030AD"/>
    <path d="M121.892 230.752L152.533 248.442L183.173 230.752L152.531 213.063L121.892 230.752ZM152.533 254.363C152.058 254.363 151.584 254.239 151.16 253.993L115.023 233.132C114.173 232.641 113.647 231.732 113.647 230.752C113.647 229.771 114.173 228.864 115.023 228.373L151.159 207.51C152.008 207.019 153.054 207.019 153.904 207.51L190.041 228.373C190.892 228.864 191.417 229.771 191.417 230.752C191.417 231.732 190.892 232.641 190.041 233.132L153.905 253.993C153.481 254.239 153.008 254.363 152.533 254.363Z" fill="white"/>
    <path fill-rule="evenodd" clip-rule="evenodd" d="M188.681 214.656L152.545 235.52V193.795L188.681 172.931V214.656Z" fill="url(#paint9_linear_60_385)"/>
    <path fill-rule="evenodd" clip-rule="evenodd" d="M152.536 193.568L116.4 172.704L152.535 151.842L188.671 172.706L152.536 193.568Z" fill="url(#paint10_linear_60_385)"/>
    <path fill-rule="evenodd" clip-rule="evenodd" d="M152.536 235.52L116.4 214.656V172.931L152.536 193.795V235.52Z" fill="url(#paint11_linear_60_385)"/>
    <path d="M139.51 212.931L129.405 207.097V195.426L139.51 201.26V212.931Z" fill="white"/>
    <path d="M434.838 267.889L432.093 263.13L537.18 202.456L539.926 207.215L434.838 267.889Z" fill="white"/>
    <path opacity="0.3" d="M346.283 414.668L253.604 361.162C250.208 359.2 250.635 355.776 254.556 353.512L352.784 296.653C356.706 294.389 362.638 294.141 366.034 296.102L458.713 349.609C462.109 351.572 461.682 354.995 457.761 357.26L359.533 414.118C355.611 416.383 349.679 416.629 346.283 414.668Z" fill="#0030AD"/>
    <path d="M347.708 390.656C350.253 392.124 355.16 391.867 358.211 390.105L456.437 333.248C457.812 332.454 458.311 331.646 458.311 331.298C458.311 331.091 458.026 330.722 457.391 330.354L364.714 276.847C362.169 275.377 357.261 275.635 354.21 277.397L255.984 334.254C254.61 335.047 254.111 335.855 254.111 336.205C254.111 336.408 254.395 336.781 255.032 337.147L347.708 390.656ZM352.102 397.093C349.456 397.093 346.909 396.538 344.961 395.413L252.284 341.906C249.953 340.56 248.617 338.482 248.617 336.205C248.617 333.636 250.3 331.192 253.234 329.496L351.46 272.64C356.215 269.893 363.24 269.652 367.46 272.088L460.137 325.596C462.468 326.94 463.804 329.018 463.804 331.298C463.804 333.867 462.121 336.311 459.187 338.003L360.961 394.861C358.403 396.339 355.186 397.093 352.102 397.093Z" fill="white"/>
    <path fill-rule="evenodd" clip-rule="evenodd" d="M352.774 371.696C354.036 370.81 354.822 368.991 354.822 366.473V140.211C354.822 137.837 354.123 135.276 352.984 133.027L370.457 122.938L372.227 121.916L418.728 95.0691L420.499 94.0469L460.821 70.7656C461.973 73.0259 462.689 75.5998 462.689 77.988V304.25C462.689 306.861 461.838 308.71 460.493 309.556L460.496 309.566L460.304 309.676L460.253 309.707L446.41 317.691L440.913 320.861L434.041 324.825L432.269 325.847L424.912 330.089L352.774 371.696Z" fill="url(#paint12_linear_60_385)"/>
    <path fill-rule="evenodd" clip-rule="evenodd" d="M352.987 132.986C351.774 130.589 350.064 128.545 348.169 127.451L253.615 72.8613C252.676 72.319 251.783 72.0631 250.972 72.0631C250.441 72.0631 249.944 72.1735 249.496 72.3878L357.175 10.2655C357.675 9.98713 358.238 9.84155 358.848 9.84155C359.656 9.84155 360.545 10.0975 361.482 10.6382L456.034 65.2278C457.919 66.3155 459.618 68.3455 460.829 70.7226L420.501 94.0071L418.729 95.0292L372.23 121.876L370.458 122.898L352.987 132.986Z" fill="url(#paint13_linear_60_385)"/>
    <path d="M348.188 371.577L253.635 316.987C249.959 314.864 246.977 309.17 246.977 304.267V78.0045C246.977 73.1016 249.959 70.8477 253.635 72.9704L348.188 127.56C351.863 129.683 354.844 135.377 354.844 140.28V366.543C354.844 371.447 351.863 373.7 348.188 371.577Z" fill="#5593CE"/>
    <path d="M350.222 126.619L255.672 72.0293C253.544 70.8023 251.652 71.0455 250.433 72.4164C251.386 72.2644 252.481 72.4948 253.644 73.1666L348.197 127.756C351.872 129.879 354.853 135.575 354.853 140.477V366.739C354.853 368.804 354.321 370.391 353.433 371.389C355.487 371.063 356.88 368.953 356.88 365.602V139.339C356.88 134.438 353.9 128.742 350.222 126.619Z" fill="white"/>
    <path d="M342.249 357.961L259.593 310.241C256.378 308.385 253.772 303.405 253.772 299.12V88.9852C253.772 84.6997 256.378 82.7305 259.593 84.5861L342.249 132.307C345.464 134.162 348.07 139.141 348.07 143.426V353.562C348.07 357.848 345.464 359.817 342.249 357.961Z" fill="#1F3E79"/>
    <path d="M344.949 356.37L262.294 308.65C259.08 306.794 256.474 301.813 256.474 297.529V87.3942C256.474 85.9338 256.783 84.75 257.309 83.8878C255.23 83.8702 253.772 85.7786 253.772 88.9827V299.117C253.772 303.403 256.378 308.383 259.593 310.238L342.249 357.959C344.367 359.183 346.214 358.735 347.233 357.066C346.533 357.061 345.76 356.837 344.949 356.37Z" fill="#386DAB"/>
    <path d="M342.221 261.433L311.5 243.696L262.501 271.984L348.042 321.372V272.554C348.042 268.268 345.437 263.289 342.221 261.433Z" fill="#1F3E79"/>
    <path d="M342.221 218.318L311.5 200.581L262.501 228.869L348.042 278.257V229.439C348.042 225.152 345.437 220.174 342.221 218.318Z" fill="#1F3E79"/>
    <path d="M342.221 175.671L311.5 157.934L262.501 186.222L348.042 235.608V186.792C348.042 182.505 345.437 177.527 342.221 175.671Z" fill="#1F3E79"/>
    <path d="M342.221 132.557L311.5 114.819L262.501 143.108L348.042 192.494V143.678C348.042 139.391 345.437 134.413 342.221 132.557Z" fill="#1F3E79"/>
    <path d="M342.221 132.529L274.207 93.2607L262.501 100.019L348.042 149.405V143.65C348.042 139.363 345.437 134.385 342.221 132.529Z" fill="#1F3E79"/>
    <path d="M348.042 149.209L262.501 99.8218V127.038L348.042 176.424V149.209Z" fill="#5593CE"/>
    <path d="M348.042 192.325L262.501 142.937V170.154L348.042 219.541V192.325Z" fill="#5593CE"/>
    <path d="M348.042 235.44L262.501 186.053V213.271L348.042 262.657V235.44Z" fill="#5593CE"/>
    <path d="M348.042 278.554L262.501 229.168V256.385L348.042 305.771V278.554Z" fill="#5593CE"/>
    <path d="M348.042 321.671L262.501 272.284V299.5L348.042 348.886V321.671Z" fill="#5593CE"/>
    <path d="M340.536 166.61L276.103 129.412C274.286 128.361 272.811 125.544 272.811 123.117V115.829C272.811 113.404 274.286 112.289 276.103 113.339L340.536 150.538C342.353 151.588 343.828 154.406 343.828 156.83V164.119C343.828 166.546 342.353 167.659 340.536 166.61Z" fill="#1F3E79"/>
    <path d="M340.899 166.793C340.779 166.742 340.659 166.681 340.536 166.61L276.103 129.412C274.286 128.361 272.811 125.544 272.811 123.118C272.811 125.544 274.286 128.361 276.103 129.412L340.536 166.61C340.659 166.681 340.779 166.742 340.899 166.793ZM272.811 115.83C272.811 114.03 273.622 112.952 274.784 112.944C273.622 112.952 272.811 114.03 272.811 115.83ZM274.803 112.944C274.801 112.944 274.8 112.944 274.798 112.944C274.8 112.944 274.801 112.944 274.803 112.944Z" fill="#4068A4"/>
    <path d="M341.831 167.002C341.54 167.002 341.227 166.935 340.899 166.793C340.779 166.742 340.659 166.681 340.536 166.61L276.103 129.412C274.286 128.361 272.811 125.544 272.811 123.118V115.83C272.811 114.03 273.622 112.952 274.784 112.944H274.803C275.201 112.945 275.641 113.072 276.103 113.339L276.187 113.387C276.116 113.704 276.067 114.046 276.067 114.433V121.723C276.067 124.148 277.541 126.965 279.36 128.016L343.708 165.166C343.447 166.331 342.75 167.002 341.831 167.002Z" fill="#233066"/>
    <path d="M320.299 146.993L281.528 124.609C280.886 124.239 280.368 123.249 280.368 122.393C280.368 121.541 280.886 121.149 281.528 121.52L320.299 143.904C320.938 144.273 321.458 145.263 321.458 146.118C321.458 146.972 320.938 147.364 320.299 146.993Z" fill="white"/>
    <path d="M340.536 209.726L276.103 172.527C274.286 171.475 272.811 168.659 272.811 166.233V158.943C272.811 156.52 274.286 155.405 276.103 156.454L340.536 193.654C342.353 194.703 343.828 197.522 343.828 199.945V207.235C343.828 209.662 342.353 210.775 340.536 209.726Z" fill="#1F3E79"/>
    <path d="M340.814 209.884C340.809 209.881 340.806 209.88 340.801 209.878C340.806 209.88 340.809 209.881 340.814 209.884ZM340.793 209.875C340.708 209.833 340.622 209.788 340.536 209.739L276.103 172.541C274.286 171.488 272.811 168.673 272.811 166.246C272.811 168.673 274.286 171.488 276.103 172.541L340.536 209.739C340.622 209.788 340.708 209.833 340.793 209.875ZM272.811 158.868C272.827 157.805 273.133 157.003 273.626 156.536C273.133 157.003 272.827 157.805 272.811 158.868ZM273.629 156.534C273.63 156.531 273.633 156.53 273.635 156.528C273.633 156.53 273.63 156.531 273.629 156.534Z" fill="#4068A4"/>
    <path d="M341.831 210.118C341.516 210.118 341.174 210.038 340.814 209.871C340.809 209.868 340.806 209.867 340.801 209.865C340.798 209.864 340.796 209.862 340.793 209.862C340.708 209.82 340.622 209.776 340.536 209.726L276.103 172.528C274.286 171.475 272.811 168.66 272.811 166.233V158.943C272.811 158.915 272.811 158.884 272.811 158.856C272.827 157.792 273.133 156.99 273.626 156.523C273.627 156.522 273.627 156.522 273.629 156.522C273.63 156.518 273.633 156.517 273.635 156.515C273.953 156.218 274.349 156.059 274.796 156.059C275.198 156.059 275.639 156.187 276.103 156.456L276.187 156.502C276.116 156.819 276.067 157.161 276.067 157.549V164.838C276.067 167.265 277.541 170.08 279.36 171.131L343.708 208.281C343.447 209.446 342.75 210.118 341.831 210.118Z" fill="#233066"/>
    <path d="M320.299 189.639L281.528 167.255C280.886 166.886 280.368 165.896 280.368 165.041C280.368 164.187 280.886 163.795 281.528 164.166L320.299 186.55C320.938 186.92 321.458 187.91 321.458 188.763C321.458 189.618 320.938 190.01 320.299 189.639Z" fill="white"/>
    <path d="M340.536 252.841L276.103 215.643C274.286 214.592 272.811 211.775 272.811 209.348V202.06C272.811 199.635 274.286 198.519 276.103 199.571L340.536 236.77C342.353 237.819 343.828 240.638 343.828 243.063V250.351C343.828 252.776 342.353 253.892 340.536 252.841Z" fill="#1F3E79"/>
    <path d="M272.811 202.061C272.811 200.258 273.626 199.178 274.792 199.175C273.626 199.178 272.811 200.258 272.811 202.061ZM276.187 199.62L276.103 199.572L276.187 199.618V199.62ZM276.103 199.572C276.084 199.561 276.065 199.549 276.044 199.538C276.065 199.549 276.084 199.561 276.103 199.572ZM274.801 199.175C274.8 199.175 274.798 199.175 274.796 199.175C274.798 199.175 274.8 199.175 274.801 199.175Z" fill="#4068A4"/>
    <path d="M341.831 253.234C341.435 253.234 340.996 253.107 340.536 252.842L276.103 215.643C274.286 214.592 272.811 211.775 272.811 209.349V202.061C272.811 200.258 273.626 199.178 274.792 199.175H274.801C275.184 199.177 275.604 199.293 276.044 199.538C276.065 199.549 276.084 199.561 276.103 199.572L276.187 199.62C276.116 199.938 276.067 200.277 276.067 200.664V207.954C276.067 210.381 277.541 213.196 279.36 214.249L343.708 251.397C343.447 252.562 342.75 253.234 341.831 253.234Z" fill="#233066"/>
    <path d="M320.299 232.756L281.528 210.371C280.886 210.003 280.368 209.011 280.368 208.157C280.368 207.304 280.886 206.912 281.528 207.28L320.299 229.667C320.938 230.035 321.458 231.027 321.458 231.88C321.458 232.734 320.938 233.126 320.299 232.756Z" fill="#D4EBFA"/>
    <path d="M340.536 296.426L276.103 259.227C274.286 258.175 272.811 255.359 272.811 252.933V245.643C272.811 243.22 274.286 242.105 276.103 243.154L340.536 280.354C342.353 281.403 343.828 284.222 343.828 286.645V293.935C343.828 296.36 342.353 297.475 340.536 296.426Z" fill="#1F3E79"/>
    <path d="M340.835 296.581C340.831 296.579 340.828 296.578 340.825 296.576C340.828 296.578 340.831 296.579 340.835 296.581ZM340.816 296.571C340.723 296.528 340.63 296.48 340.536 296.426L276.103 259.228C274.286 258.175 272.811 255.36 272.811 252.933C272.811 255.36 274.286 258.175 276.103 259.228L340.536 296.426C340.63 296.48 340.723 296.528 340.816 296.571ZM272.811 245.643C272.811 243.845 273.622 242.767 274.784 242.759C273.622 242.767 272.811 243.845 272.811 245.643ZM274.803 242.759C274.801 242.759 274.8 242.759 274.798 242.759C274.8 242.759 274.801 242.759 274.803 242.759Z" fill="#4068A4"/>
    <path d="M341.831 296.818C341.521 296.818 341.187 296.741 340.835 296.581L340.816 296.571C340.723 296.528 340.63 296.48 340.536 296.426L276.103 259.228C274.286 258.175 272.811 255.36 272.811 252.933V245.643C272.811 243.845 273.622 242.767 274.784 242.759H274.803C275.201 242.761 275.641 242.887 276.103 243.154L276.187 243.202C276.116 243.519 276.067 243.861 276.067 244.249V251.538C276.067 253.963 277.541 256.78 279.36 257.831L343.708 294.981C343.447 296.146 342.75 296.818 341.831 296.818Z" fill="#233066"/>
    <path d="M320.299 276.34L281.528 253.956C280.886 253.586 280.368 252.596 280.368 251.74C280.368 250.888 280.886 250.496 281.528 250.865L320.299 273.251C320.938 273.62 321.458 274.61 321.458 275.463C321.458 276.319 320.938 276.711 320.299 276.34Z" fill="#ED3795"/>
    <path d="M340.536 339.071L276.103 301.873C274.286 300.822 272.811 298.005 272.811 295.578V288.29C272.811 285.865 274.286 284.752 276.103 285.801L340.536 322.999C342.353 324.05 343.828 326.867 343.828 329.292V336.58C343.828 339.005 342.353 340.122 340.536 339.071Z" fill="#1F3E79"/>
    <path d="M272.811 288.29C272.811 286.492 273.622 285.414 274.784 285.406C273.622 285.414 272.811 286.492 272.811 288.29ZM276.187 285.849L276.103 285.801L276.187 285.848V285.849ZM276.103 285.801C276.076 285.784 276.047 285.769 276.019 285.753C276.047 285.769 276.076 285.784 276.103 285.801ZM274.803 285.406C274.801 285.406 274.798 285.406 274.796 285.406C274.798 285.406 274.801 285.406 274.803 285.406Z" fill="#4068A4"/>
    <path d="M341.831 339.463C341.435 339.463 340.996 339.337 340.536 339.071L276.103 301.873C274.286 300.822 272.811 298.005 272.811 295.578V288.29C272.811 286.492 273.622 285.414 274.784 285.406H274.803C275.177 285.408 275.588 285.52 276.019 285.753C276.047 285.769 276.076 285.784 276.103 285.801L276.187 285.849C276.116 286.167 276.067 286.507 276.067 286.895V294.183C276.067 296.61 277.541 299.425 279.36 300.476L343.708 337.627C343.447 338.789 342.75 339.463 341.831 339.463Z" fill="#233066"/>
    <path d="M320.299 318.987L281.528 296.602C280.886 296.234 280.368 295.24 280.368 294.388C280.368 293.535 280.886 293.143 281.528 293.511L320.299 315.898C320.938 316.266 321.458 317.258 321.458 318.111C321.458 318.965 320.938 319.357 320.299 318.987Z" fill="#D4EBFA"/>
    <path d="M269.237 130.929L262.501 127.038L269.237 130.927V130.929ZM269.237 103.712L262.501 99.8218L269.237 103.712V103.711V103.712Z" fill="#1F3E79"/>
    <path d="M269.237 103.712L262.501 99.8218L269.237 103.711" fill="#1F3E79"/>
    <path d="M269.237 130.927L262.501 127.038V99.8218L269.237 103.712V130.929" fill="#3668A5"/>
    <path d="M269.237 174.009L262.501 170.119L269.237 174.008V174.009Z" fill="#1F3E79"/>
    <path d="M269.237 174.042L262.501 170.154V142.937L269.237 146.828V174.044" fill="#3668A5"/>
    <path d="M269.237 217.16L262.501 213.271V186.053L269.237 189.943V217.16Z" fill="#3668A5"/>
    <path d="M269.237 233.057L262.501 229.168L269.237 233.057Z" fill="#1F3E79"/>
    <path d="M269.237 260.274L262.501 256.385V229.168L269.237 233.057V260.274Z" fill="#3668A5"/>
    <path d="M269.237 303.356L262.501 299.465L269.237 303.354V303.356Z" fill="#1F3E79"/>
    <path d="M269.237 276.174L262.501 272.284L269.237 276.173V276.174Z" fill="#1F3E79"/>
    <path d="M269.237 303.389L262.501 299.5V272.284L269.237 276.174V303.391" fill="#3668A5"/>
    <path d="M327.91 149.703C327.91 150.573 327.3 150.927 326.547 150.49C325.792 150.056 325.182 148.999 325.182 148.129C325.182 147.26 325.792 146.907 326.547 147.34C327.3 147.777 327.91 148.834 327.91 149.703Z" fill="#D4EBFA"/>
    <path d="M333.709 152.983C333.709 153.854 333.098 154.207 332.345 153.77C331.592 153.337 330.982 152.28 330.982 151.409C330.982 150.541 331.592 150.187 332.345 150.621C333.098 151.057 333.709 152.115 333.709 152.983Z" fill="#ED3795"/>
    <path d="M339.509 156.264C339.509 157.134 338.898 157.488 338.145 157.051C337.393 156.618 336.782 155.559 336.782 154.689C336.782 153.822 337.393 153.468 338.145 153.902C338.898 154.338 339.509 155.396 339.509 156.264Z" fill="#D4EBFA"/>
    <path d="M327.91 192.35C327.91 193.219 327.3 193.572 326.547 193.139C325.792 192.702 325.182 191.645 325.182 190.776C325.182 189.906 325.792 189.553 326.547 189.989C327.3 190.423 327.91 191.48 327.91 192.35Z" fill="#ED3795"/>
    <path d="M333.709 196.1C333.709 196.968 333.098 197.322 332.345 196.887C331.592 196.452 330.982 195.394 330.982 194.526C330.982 193.655 331.592 193.302 332.345 193.738C333.098 194.172 333.709 195.229 333.709 196.1Z" fill="#D4EBFA"/>
    <path d="M339.509 199.381C339.509 200.249 338.898 200.603 338.145 200.168C337.393 199.733 336.782 198.675 336.782 197.805C336.782 196.936 337.393 196.583 338.145 197.018C338.898 197.453 339.509 198.511 339.509 199.381Z" fill="white"/>
    <path d="M327.91 235.935C327.91 236.805 327.3 237.155 326.547 236.722C325.792 236.287 325.182 235.229 325.182 234.359C325.182 233.489 325.792 233.139 326.547 233.572C327.3 234.007 327.91 235.065 327.91 235.935Z" fill="white"/>
    <path d="M333.709 239.215C333.709 240.085 333.098 240.436 332.345 240.002C331.592 239.567 330.982 238.51 330.982 237.64C330.982 236.769 331.592 236.419 332.345 236.853C333.098 237.288 333.709 238.345 333.709 239.215Z" fill="#ED3795"/>
    <path d="M339.509 242.496C339.509 243.366 338.898 243.716 338.145 243.283C337.393 242.848 336.782 241.79 336.782 240.92C336.782 240.05 337.393 239.7 338.145 240.133C338.898 240.567 339.509 241.626 339.509 242.496Z" fill="white"/>
    <path d="M327.91 278.582C327.91 279.452 327.3 279.804 326.547 279.369C325.792 278.934 325.182 277.876 325.182 277.006C325.182 276.136 325.792 275.786 326.547 276.219C327.3 276.654 327.91 277.711 327.91 278.582Z" fill="white"/>
    <path d="M333.709 281.863C333.709 282.731 333.098 283.085 332.345 282.65C331.592 282.215 330.982 281.157 330.982 280.287C330.982 279.417 331.592 279.065 332.345 279.5C333.098 279.934 333.709 280.992 333.709 281.863Z" fill="#D4EBFA"/>
    <path d="M339.509 285.142C339.509 286.012 338.898 286.364 338.145 285.93C337.393 285.495 336.782 284.438 336.782 283.568C336.782 282.698 337.393 282.346 338.145 282.781C338.898 283.214 339.509 284.273 339.509 285.142Z" fill="#D4EBFA"/>
    <path d="M327.91 322.165C327.91 323.036 327.3 323.388 326.547 322.952C325.792 322.517 325.182 321.46 325.182 320.59C325.182 319.721 325.792 319.369 326.547 319.803C327.3 320.239 327.91 321.297 327.91 322.165Z" fill="white"/>
    <path d="M333.709 325.446C333.709 326.316 333.098 326.668 332.345 326.233C331.592 325.798 330.982 324.74 330.982 323.87C330.982 323.002 331.592 322.65 332.345 323.083C333.098 323.52 333.709 324.577 333.709 325.446Z" fill="#ED3795"/>
    <path d="M339.509 328.727C339.509 329.597 338.898 329.949 338.145 329.514C337.393 329.079 336.782 328.021 336.782 327.151C336.782 326.281 337.393 325.931 338.145 326.364C338.898 326.801 339.509 327.858 339.509 328.727Z" fill="#D4EBFA"/>
    <path d="M370.654 149.336V338.317L448.383 293.44V104.459L370.654 149.336ZM369.06 341.081V148.414L369.458 148.186L449.978 101.697V294.363L449.579 294.59L369.06 341.081Z" fill="#1F3E79"/>
    <path d="M429.064 188.314L392.96 209.159C390.533 210.559 388.567 209.073 388.567 205.84V185.821C388.567 182.588 390.533 178.832 392.96 177.43L429.064 156.587C431.487 155.186 433.455 156.672 433.455 159.906V179.923C433.455 183.157 431.487 186.915 429.064 188.314Z" fill="#1F3E79"/>
    <path d="M429.964 156.196C430.17 156.758 430.29 157.428 430.29 158.204V178.223C430.29 181.456 428.322 185.214 425.899 186.614L389.793 207.459C389.494 207.631 389.2 207.759 388.918 207.847C389.569 209.613 391.142 210.223 392.985 209.159L429.089 188.314C431.512 186.914 433.48 183.157 433.48 179.922V159.906C433.48 157.071 431.97 155.582 429.964 156.196Z" fill="#5593CE"/>
    <path d="M422.464 176.376C423.131 175.991 423.674 176.304 423.674 177.075V181.636C423.674 182.405 423.131 183.343 422.464 183.726C421.797 184.112 421.255 183.8 421.255 183.031V178.47C421.255 177.701 421.797 176.763 422.464 176.376Z" fill="white"/>
    <path d="M417.308 180.126C417.975 179.74 418.515 180.052 418.515 180.825V184.814C418.515 185.584 417.975 186.521 417.308 186.907C416.641 187.292 416.1 186.98 416.1 186.209V182.22C416.1 181.449 416.641 180.511 417.308 180.126Z" fill="#D4EBFA"/>
    <path d="M412.152 178.25C412.821 177.866 413.362 178.178 413.362 178.949V187.391C413.362 188.16 412.821 189.097 412.152 189.483C411.485 189.87 410.945 189.556 410.945 188.785V180.344C410.945 179.573 411.485 178.636 412.152 178.25Z" fill="#ED3795"/>
    <path d="M406.941 176.376C407.608 175.991 408.148 176.303 408.148 177.074V190.38C408.148 191.151 407.608 192.087 406.941 192.474C406.272 192.859 405.731 192.546 405.731 191.775V178.47C405.731 177.698 406.272 176.76 406.941 176.376Z" fill="#D4EBFA"/>
    <path d="M401.784 181.063C402.452 180.677 402.992 180.989 402.992 181.762V193.671C402.992 194.444 402.452 195.38 401.784 195.765C401.117 196.151 400.576 195.839 400.576 195.068V183.157C400.576 182.386 401.117 181.45 401.784 181.063Z" fill="#D4EBFA"/>
    <path d="M396.572 189.499C397.239 189.113 397.78 189.425 397.78 190.196V196.663C397.78 197.436 397.239 198.373 396.572 198.757C395.903 199.143 395.363 198.831 395.363 198.06V191.591C395.363 190.82 395.903 189.884 396.572 189.499Z" fill="white"/>
    <path d="M421.314 174.213C421.314 174.973 421.846 175.278 422.502 174.901C423.158 174.52 423.691 173.599 423.691 172.842C423.691 172.084 423.158 171.777 422.502 172.156C421.846 172.533 421.314 173.455 421.314 174.213Z" fill="#ED3795"/>
    <path d="M421.314 169.528C421.314 170.286 421.846 170.592 422.502 170.214C423.158 169.835 423.691 168.914 423.691 168.156C423.691 167.397 423.158 167.09 422.502 167.469C421.846 167.85 421.314 168.77 421.314 169.528Z" fill="white"/>
    <path d="M559.904 66.5479H554.409V173.139H559.904V66.5479Z" fill="white"/>
    <path opacity="0.3" d="M348.7 512.68L293.492 480.806C290.104 478.849 290.53 475.431 294.441 473.172L347.748 442.396C351.66 440.138 357.579 439.893 360.967 441.848L416.174 473.722C419.564 475.679 419.138 479.096 415.226 481.354L361.919 512.132C358.006 514.39 352.088 514.635 348.7 512.68Z" fill="#0030AD"/>
    <path d="M350.238 492.496C352.676 493.9 357.384 493.644 360.322 491.947L413.629 461.17C414.97 460.397 415.291 459.697 415.299 459.565C415.28 459.529 415.101 459.271 414.581 458.969L359.371 427.094C356.939 425.69 352.228 425.946 349.288 427.643L295.981 458.418C294.641 459.193 294.321 459.892 294.313 460.023C294.332 460.063 294.511 460.32 295.033 460.621L350.24 492.496H350.238ZM354.442 499.681C351.744 499.681 349.141 499.102 347.105 497.927H347.103L291.898 466.052C289.447 464.638 288.042 462.44 288.042 460.021C288.042 457.315 289.792 454.75 292.845 452.989L346.153 422.214C351.085 419.363 358.113 419.126 362.506 421.665L417.716 453.54C420.165 454.952 421.57 457.15 421.57 459.567C421.57 462.274 419.818 464.838 416.764 466.601L363.459 497.378C360.814 498.906 357.563 499.681 354.442 499.681Z" fill="white"/>
    <path d="M418.435 439.919V420.872L375.721 420.847L360.958 412.324C357.57 410.367 351.652 410.614 347.739 412.872L333.966 420.826L291.214 420.8V440.391C291.118 441.716 291.857 442.994 293.483 443.933L348.691 475.807C352.079 477.762 357.997 477.517 361.91 475.259L415.217 444.483C417.474 443.179 418.563 441.492 418.435 439.919Z" fill="url(#paint14_linear_60_385)"/>
    <path fill-rule="evenodd" clip-rule="evenodd" d="M354.825 411.003C352.346 411.064 349.774 411.688 347.739 412.862L333.966 420.816L291.214 420.79V440.381C291.118 441.706 291.857 442.984 293.483 443.923L348.691 475.797C350.317 476.738 352.531 477.163 354.825 477.107V411.003Z" fill="url(#paint15_linear_60_385)"/>
    <path d="M296.053 420.848L291.214 420.845V440.436C291.118 441.76 291.857 443.038 293.483 443.977L296.053 445.46V420.848Z" fill="#D4EBFA"/>
    <path d="M349.552 476.484C352.473 477.736 356.701 477.666 360.119 476.362V454.119H349.552V476.484Z" fill="url(#paint16_linear_60_385)"/>
    <path fill-rule="evenodd" clip-rule="evenodd" d="M348.7 456.441L293.492 424.568C290.104 422.612 290.53 419.193 294.441 416.935L347.748 386.159C351.66 383.9 357.579 383.655 360.967 385.61L416.174 417.485C419.564 419.441 419.138 422.856 415.226 425.117L361.919 455.894C358.006 458.153 352.088 458.397 348.7 456.441Z" fill="url(#paint17_linear_60_385)"/>
    <path d="M415.226 421.354L361.919 452.13C358.007 454.388 352.088 454.633 348.7 452.678L293.493 420.804C292.736 420.369 292.183 419.857 291.802 419.305C290.637 421.176 291.165 423.21 293.493 424.553L348.7 456.426C352.088 458.383 358.007 458.138 361.919 455.879L415.226 425.102C418.265 423.347 419.188 420.895 417.866 418.97C417.334 419.825 416.451 420.645 415.226 421.354Z" fill="white"/>
    <path d="M398.124 444.932C398.124 446.354 397.125 448.083 395.895 448.795C394.662 449.505 393.664 448.929 393.664 447.507C393.664 446.084 394.662 444.356 395.895 443.644C397.125 442.934 398.124 443.51 398.124 444.932Z" fill="#D4EBFA"/>
    <path d="M405.329 440.714C405.329 442.136 404.33 443.865 403.099 444.576C401.867 445.286 400.869 444.71 400.869 443.288C400.869 441.867 401.867 440.137 403.099 439.426C404.33 438.716 405.329 439.292 405.329 440.714Z" fill="#D4EBFA"/>
    <path d="M412.476 436.496C412.476 437.92 411.478 439.649 410.246 440.359C409.014 441.07 408.016 440.494 408.016 439.072C408.016 437.65 409.014 435.922 410.246 435.209C411.478 434.498 412.476 435.074 412.476 436.496Z" fill="#D4EBFA"/>
    <path d="M351.971 436.801L326.135 421.886C324.55 420.971 324.75 419.371 326.581 418.312L351.526 403.91C353.356 402.853 356.127 402.74 357.712 403.655L383.545 418.571C385.13 419.486 384.932 421.084 383.102 422.142L358.157 436.543C356.327 437.601 353.556 437.714 351.971 436.801Z" fill="url(#paint18_linear_60_385)"/>
    <path d="M354.446 424.11L350.871 422.046C350.654 421.92 350.679 421.699 350.932 421.553L354.386 419.56C354.638 419.415 355.021 419.397 355.24 419.525L358.815 421.589C359.034 421.715 359.005 421.936 358.753 422.083L355.302 424.074C355.049 424.222 354.664 424.238 354.446 424.11Z" fill="#D4EBFA"/>
    <path d="M326.135 421.886L326.209 421.927L326.581 421.671L351.526 407.27C353.356 406.212 356.127 406.099 357.712 407.014L383.471 421.887C384.933 420.84 385.01 419.416 383.545 418.571L357.712 403.655C356.127 402.74 353.356 402.853 351.526 403.91L326.581 418.312C324.75 419.371 324.55 420.971 326.135 421.886Z" fill="#386DAB"/>
    <path opacity="0.3" d="M551.037 372.086L495.832 340.212C492.444 338.255 492.867 334.838 496.782 332.58L550.087 301.802C553.998 299.544 559.918 299.299 563.305 301.254L618.513 333.128C621.901 335.085 621.478 338.502 617.563 340.762L564.258 371.538C560.345 373.796 554.427 374.041 551.037 372.086Z" fill="#0030AD"/>
    <path d="M552.575 351.903C555.013 353.304 559.722 353.048 562.664 351.352L615.967 320.577C617.308 319.802 617.629 319.103 617.637 318.972C617.618 318.934 617.439 318.676 616.919 318.374L561.71 286.499C559.277 285.096 554.566 285.352 551.628 287.048L498.321 317.825C496.981 318.6 496.659 319.299 496.651 319.43C496.67 319.468 496.849 319.726 497.369 320.026L552.578 351.903H552.575ZM556.78 359.087C554.078 359.087 551.477 358.508 549.443 357.332H549.441L494.234 325.457C491.785 324.043 490.38 321.845 490.38 319.428C490.38 316.722 492.132 314.157 495.186 312.396L548.491 281.619C553.424 278.768 560.456 278.533 564.846 281.07L620.054 312.945C622.503 314.357 623.908 316.555 623.908 318.974C623.908 321.68 622.156 324.245 619.102 326.007L565.799 356.783C563.152 358.311 559.901 359.087 556.78 359.087Z" fill="white"/>
    <path d="M620.774 299.326V280.277L578.062 280.253L563.296 271.729C559.909 269.774 553.989 270.019 550.078 272.278L536.303 280.231L493.553 280.207V299.796C493.455 301.121 494.194 302.399 495.823 303.338L551.028 335.213C554.418 337.167 560.336 336.923 564.249 334.664L617.554 303.888C619.813 302.584 620.901 300.898 620.774 299.326Z" fill="url(#paint19_linear_60_385)"/>
    <path fill-rule="evenodd" clip-rule="evenodd" d="M557.164 270.409C554.685 270.47 552.111 271.095 550.078 272.268L536.303 280.221L493.553 280.197V299.787C493.455 301.111 494.194 302.389 495.823 303.328L551.028 335.203C552.656 336.144 554.872 336.569 557.164 336.513V270.409Z" fill="url(#paint20_linear_60_385)"/>
    <path d="M498.39 280.252L493.553 280.251V299.84C493.455 301.165 494.194 302.443 495.823 303.382L498.39 304.866V280.252Z" fill="#D4EBFA"/>
    <path d="M551.891 335.419C554.812 336.672 559.04 336.603 562.456 335.299V313.056H551.891V335.419Z" fill="url(#paint21_linear_60_385)"/>
    <path fill-rule="evenodd" clip-rule="evenodd" d="M551.037 315.848L495.832 283.974C492.444 282.017 492.867 278.599 496.782 276.34L550.087 245.565C553.998 243.306 559.918 243.061 563.305 245.016L618.513 276.891C621.901 278.847 621.478 282.264 617.563 284.524L564.258 315.3C560.345 317.558 554.427 317.803 551.037 315.848Z" fill="url(#paint22_linear_60_385)"/>
    <path d="M617.562 280.76L564.257 311.535C560.344 313.794 554.426 314.039 551.036 312.084L495.831 280.209C495.075 279.774 494.519 279.262 494.14 278.711C492.977 280.582 493.505 282.615 495.831 283.959L551.036 315.834C554.426 317.788 560.344 317.544 564.257 315.285L617.562 284.509C620.605 282.753 621.528 280.301 620.203 278.376C619.672 279.23 618.789 280.051 617.562 280.76Z" fill="white"/>
    <path d="M600.46 304.338C600.46 305.758 599.462 307.487 598.23 308.199C597 308.91 596.002 308.334 596.002 306.912C596.002 305.489 597 303.76 598.23 303.05C599.462 302.34 600.46 302.916 600.46 304.338Z" fill="#D4EBFA"/>
    <path d="M607.609 300.12C607.609 301.544 606.61 303.271 605.38 303.983C604.147 304.694 603.149 304.118 603.149 302.694C603.149 301.274 604.147 299.544 605.38 298.832C606.61 298.122 607.609 298.698 607.609 300.12Z" fill="#D4EBFA"/>
    <path d="M614.814 295.902C614.814 297.325 613.816 299.054 612.584 299.764C611.352 300.474 610.354 299.898 610.354 298.476C610.354 297.056 611.352 295.327 612.584 294.615C613.816 293.905 614.814 294.479 614.814 295.902Z" fill="#D4EBFA"/>
    <path d="M554.248 295.737L528.416 280.822C526.83 279.907 527.029 278.308 528.859 277.25L553.804 262.849C555.635 261.791 558.403 261.676 559.989 262.591L585.825 277.508C587.411 278.423 587.211 280.022 585.379 281.078L560.436 295.481C558.602 296.537 555.835 296.652 554.248 295.737Z" fill="url(#paint23_linear_60_385)"/>
    <path d="M556.725 283.515L553.151 281.451C552.932 281.325 552.961 281.106 553.213 280.958L556.664 278.967C556.918 278.82 557.301 278.804 557.518 278.93L561.095 280.994C561.314 281.12 561.287 281.342 561.034 281.488L557.58 283.481C557.326 283.627 556.944 283.643 556.725 283.515Z" fill="#D4EBFA"/>
    <path d="M528.416 280.822L528.488 280.864L528.859 280.61L553.804 266.206C555.635 265.151 558.403 265.035 559.989 265.95L585.752 280.824C587.212 279.778 587.289 278.354 585.825 277.508L559.989 262.591C558.403 261.676 555.635 261.791 553.804 262.849L528.859 277.25C527.029 278.308 526.83 279.907 528.416 280.822Z" fill="url(#paint24_linear_60_385)"/>
    <path opacity="0.3" d="M146.421 372.086L91.2128 340.212C87.8247 338.255 88.2502 334.838 92.1629 332.58L145.47 301.802C149.382 299.544 155.301 299.299 158.689 301.254L213.896 333.128C217.284 335.085 216.859 338.502 212.948 340.762L159.641 371.538C155.727 373.796 149.809 374.041 146.421 372.086Z" fill="#0030AD"/>
    <path d="M147.96 351.903C150.393 353.304 155.101 353.048 158.044 351.352L211.349 320.577C212.69 319.804 213.011 319.103 213.018 318.972C213 318.934 212.819 318.676 212.299 318.374L157.092 286.499C154.659 285.096 149.948 285.352 147.01 287.048L93.7031 317.825C92.3626 318.6 92.0411 319.299 92.0331 319.43C92.0507 319.468 92.2314 319.726 92.7513 320.026L147.962 351.903H147.96ZM152.162 359.087C149.464 359.087 146.861 358.508 144.826 357.332H144.825L89.616 325.457C87.1669 324.043 85.7625 321.845 85.7625 319.428C85.7625 316.722 87.5125 314.157 90.5678 312.396L143.873 281.619C148.808 278.768 155.837 278.533 160.228 281.07L215.435 312.945C217.884 314.357 219.288 316.555 219.29 318.974C219.29 321.68 217.54 324.245 214.486 326.007L161.179 356.783C158.534 358.311 155.285 359.087 152.162 359.087Z" fill="white"/>
    <path d="M216.157 299.326V280.277L173.445 280.253L158.68 271.729C155.292 269.774 149.373 270.019 145.461 272.278L131.686 280.231L88.9338 280.207V299.796C88.8394 301.121 89.5769 302.399 91.2037 303.338L146.412 335.213C149.8 337.167 155.718 336.923 159.632 334.664L212.939 303.888C215.194 302.584 216.283 300.898 216.157 299.326Z" fill="url(#paint25_linear_60_385)"/>
    <path fill-rule="evenodd" clip-rule="evenodd" d="M152.547 270.409C150.068 270.47 147.494 271.095 145.461 272.268L131.686 280.221L88.9338 280.197V299.787C88.8394 301.111 89.5769 302.389 91.2037 303.328L146.412 335.203C148.039 336.144 150.253 336.569 152.547 336.513V270.409Z" fill="url(#paint26_linear_60_385)"/>
    <path d="M93.7743 280.252L88.9338 280.251V299.84C88.8394 301.165 89.5769 302.443 91.2037 303.382L93.7743 304.866V280.252Z" fill="#D4EBFA"/>
    <path d="M147.214 335.419C150.138 336.672 154.366 336.603 157.783 335.299V313.056H147.214V335.419Z" fill="url(#paint27_linear_60_385)"/>
    <path fill-rule="evenodd" clip-rule="evenodd" d="M146.421 315.848L91.2128 283.974C87.8247 282.017 88.2502 278.599 92.1629 276.34L145.47 245.565C149.382 243.306 155.301 243.061 158.689 245.016L213.896 276.891C217.284 278.847 216.859 282.264 212.948 284.524L159.641 315.3C155.727 317.558 149.809 317.803 146.421 315.848Z" fill="url(#paint28_linear_60_385)"/>
    <path d="M212.947 280.76L159.64 311.535C155.726 313.794 149.809 314.039 146.42 312.084L91.2118 280.209C90.4583 279.774 89.9017 279.262 89.5225 278.711C88.358 280.582 88.8859 282.615 91.2118 283.959L146.42 315.834C149.809 317.788 155.726 317.544 159.64 315.285L212.947 284.509C215.986 282.753 216.911 280.301 215.584 278.376C215.055 279.23 214.172 280.051 212.947 280.76Z" fill="white"/>
    <path d="M195.843 304.338C195.843 305.758 194.845 307.487 193.613 308.199C192.382 308.91 191.384 308.334 191.384 306.912C191.384 305.489 192.382 303.76 193.613 303.05C194.845 302.34 195.843 302.916 195.843 304.338Z" fill="#D4EBFA"/>
    <path d="M202.991 300.12C202.991 301.544 201.993 303.271 200.761 303.983C199.531 304.694 198.531 304.118 198.531 302.694C198.531 301.274 199.531 299.544 200.761 298.832C201.993 298.122 202.991 298.698 202.991 300.12Z" fill="#D4EBFA"/>
    <path d="M210.196 295.902C210.196 297.325 209.198 299.054 207.966 299.764C206.734 300.474 205.736 299.898 205.736 298.476C205.736 297.056 206.734 295.327 207.966 294.615C209.198 293.905 210.196 294.479 210.196 295.902Z" fill="#D4EBFA"/>
    <path d="M149.631 295.737L123.798 280.822C122.211 279.907 122.411 278.308 124.241 277.25L149.186 262.849C151.016 261.791 153.786 261.676 155.372 262.591L181.206 277.508C182.793 278.423 182.595 280.022 180.763 281.078L155.816 295.481C153.986 296.537 151.216 296.652 149.631 295.737Z" fill="url(#paint29_linear_60_385)"/>
    <path d="M152.108 283.515L148.535 281.451C148.314 281.325 148.341 281.106 148.596 280.958L152.046 278.967C152.299 278.82 152.683 278.804 152.902 278.93L156.476 280.994C156.696 281.12 156.669 281.342 156.415 281.488L152.963 283.481C152.71 283.627 152.328 283.643 152.108 283.515Z" fill="#D4EBFA"/>
    <path d="M123.798 280.822L123.871 280.864L124.241 280.61L149.186 266.206C151.016 265.151 153.786 265.035 155.372 265.95L181.132 280.824C182.596 279.778 182.671 278.354 181.206 277.508L155.372 262.591C153.786 261.676 151.016 261.791 149.186 262.849L124.241 277.25C122.411 278.308 122.211 279.907 123.798 280.822Z" fill="#386DAB"/>
    <defs>
    <linearGradient id="paint0_linear_60_385" x1="190.785" y1="429.05" x2="148.06" y2="429.05" gradientUnits="userSpaceOnUse">
    <stop stop-color="#008EFF"/>
    <stop offset="0.753096" stop-color="#88CCFF"/>
    <stop offset="1" stop-color="#BEE0FF"/>
    </linearGradient>
    <linearGradient id="paint1_linear_60_385" x1="220.625" y1="397.572" x2="111.349" y2="397.572" gradientUnits="userSpaceOnUse">
    <stop stop-color="#008EFF"/>
    <stop offset="0.320247" stop-color="#88CCFF"/>
    <stop offset="1" stop-color="#BEE0FF"/>
    </linearGradient>
    <linearGradient id="paint2_linear_60_385" x1="154.641" y1="429.05" x2="111.916" y2="429.05" gradientUnits="userSpaceOnUse">
    <stop stop-color="#008EFF"/>
    <stop offset="0.753096" stop-color="#88CCFF"/>
    <stop offset="1" stop-color="#BEE0FF"/>
    </linearGradient>
    <linearGradient id="paint3_linear_60_385" x1="595.403" y1="204.1" x2="552.678" y2="204.1" gradientUnits="userSpaceOnUse">
    <stop stop-color="#008EFF"/>
    <stop offset="0.753096" stop-color="#88CCFF"/>
    <stop offset="1" stop-color="#BEE0FF"/>
    </linearGradient>
    <linearGradient id="paint4_linear_60_385" x1="625.243" y1="172.622" x2="515.967" y2="172.622" gradientUnits="userSpaceOnUse">
    <stop stop-color="#008EFF"/>
    <stop offset="0.320247" stop-color="#88CCFF"/>
    <stop offset="1" stop-color="#BEE0FF"/>
    </linearGradient>
    <linearGradient id="paint5_linear_60_385" x1="559.258" y1="204.1" x2="516.534" y2="204.1" gradientUnits="userSpaceOnUse">
    <stop stop-color="#008EFF"/>
    <stop offset="0.753096" stop-color="#88CCFF"/>
    <stop offset="1" stop-color="#BEE0FF"/>
    </linearGradient>
    <linearGradient id="paint6_linear_60_385" x1="595.403" y1="429.05" x2="552.678" y2="429.05" gradientUnits="userSpaceOnUse">
    <stop stop-color="#008EFF"/>
    <stop offset="0.753096" stop-color="#88CCFF"/>
    <stop offset="1" stop-color="#BEE0FF"/>
    </linearGradient>
    <linearGradient id="paint7_linear_60_385" x1="625.241" y1="397.572" x2="515.967" y2="397.572" gradientUnits="userSpaceOnUse">
    <stop stop-color="#008EFF"/>
    <stop offset="0.320247" stop-color="#88CCFF"/>
    <stop offset="1" stop-color="#BEE0FF"/>
    </linearGradient>
    <linearGradient id="paint8_linear_60_385" x1="559.258" y1="429.05" x2="516.534" y2="429.05" gradientUnits="userSpaceOnUse">
    <stop stop-color="#008EFF"/>
    <stop offset="0.753096" stop-color="#88CCFF"/>
    <stop offset="1" stop-color="#BEE0FF"/>
    </linearGradient>
    <linearGradient id="paint9_linear_60_385" x1="190.785" y1="204.1" x2="148.06" y2="204.1" gradientUnits="userSpaceOnUse">
    <stop stop-color="#008EFF"/>
    <stop offset="0.753096" stop-color="#88CCFF"/>
    <stop offset="1" stop-color="#BEE0FF"/>
    </linearGradient>
    <linearGradient id="paint10_linear_60_385" x1="220.625" y1="172.622" x2="111.349" y2="172.622" gradientUnits="userSpaceOnUse">
    <stop stop-color="#008EFF"/>
    <stop offset="0.320247" stop-color="#88CCFF"/>
    <stop offset="1" stop-color="#BEE0FF"/>
    </linearGradient>
    <linearGradient id="paint11_linear_60_385" x1="154.641" y1="204.1" x2="111.916" y2="204.1" gradientUnits="userSpaceOnUse">
    <stop stop-color="#008EFF"/>
    <stop offset="0.753096" stop-color="#88CCFF"/>
    <stop offset="1" stop-color="#BEE0FF"/>
    </linearGradient>
    <linearGradient id="paint12_linear_60_385" x1="469.092" y1="220.626" x2="339.134" y2="220.626" gradientUnits="userSpaceOnUse">
    <stop stop-color="#008EFF"/>
    <stop offset="0.753096" stop-color="#88CCFF"/>
    <stop offset="1" stop-color="#BEE0FF"/>
    </linearGradient>
    <linearGradient id="paint13_linear_60_385" x1="554.269" y1="71.1677" x2="234.724" y2="71.1677" gradientUnits="userSpaceOnUse">
    <stop stop-color="#008EFF"/>
    <stop offset="0.320247" stop-color="#88CCFF"/>
    <stop offset="1" stop-color="#BEE0FF"/>
    </linearGradient>
    <linearGradient id="paint14_linear_60_385" x1="425.857" y1="443.932" x2="275.416" y2="443.932" gradientUnits="userSpaceOnUse">
    <stop stop-color="#008EFF"/>
    <stop offset="0.753096" stop-color="#88CCFF"/>
    <stop offset="1" stop-color="#BEE0FF"/>
    </linearGradient>
    <linearGradient id="paint15_linear_60_385" x1="358.531" y1="443.925" x2="283.31" y2="443.925" gradientUnits="userSpaceOnUse">
    <stop stop-color="#008EFF"/>
    <stop offset="0.753096" stop-color="#88CCFF"/>
    <stop offset="1" stop-color="#BEE0FF"/>
    </linearGradient>
    <linearGradient id="paint16_linear_60_385" x1="360.735" y1="465.704" x2="348.241" y2="465.704" gradientUnits="userSpaceOnUse">
    <stop stop-color="#008EFF"/>
    <stop offset="0.753096" stop-color="#88CCFF"/>
    <stop offset="1" stop-color="#BEE0FF"/>
    </linearGradient>
    <linearGradient id="paint17_linear_60_385" x1="474.729" y1="420.88" x2="282.31" y2="420.88" gradientUnits="userSpaceOnUse">
    <stop stop-color="#008EFF"/>
    <stop offset="0.320247" stop-color="#88CCFF"/>
    <stop offset="1" stop-color="#BEE0FF"/>
    </linearGradient>
    <linearGradient id="paint18_linear_60_385" x1="348.087" y1="434.138" x2="329.652" y2="388.661" gradientUnits="userSpaceOnUse">
    <stop stop-color="#418CFF"/>
    <stop offset="1" stop-color="#0646BD"/>
    </linearGradient>
    <linearGradient id="paint19_linear_60_385" x1="628.196" y1="303.338" x2="477.754" y2="303.338" gradientUnits="userSpaceOnUse">
    <stop stop-color="#008EFF"/>
    <stop offset="0.753096" stop-color="#88CCFF"/>
    <stop offset="1" stop-color="#BEE0FF"/>
    </linearGradient>
    <linearGradient id="paint20_linear_60_385" x1="560.87" y1="303.331" x2="485.649" y2="303.331" gradientUnits="userSpaceOnUse">
    <stop stop-color="#008EFF"/>
    <stop offset="0.753096" stop-color="#88CCFF"/>
    <stop offset="1" stop-color="#BEE0FF"/>
    </linearGradient>
    <linearGradient id="paint21_linear_60_385" x1="563.072" y1="324.641" x2="550.58" y2="324.641" gradientUnits="userSpaceOnUse">
    <stop stop-color="#008EFF"/>
    <stop offset="0.753096" stop-color="#88CCFF"/>
    <stop offset="1" stop-color="#BEE0FF"/>
    </linearGradient>
    <linearGradient id="paint22_linear_60_385" x1="677.067" y1="280.285" x2="484.649" y2="280.285" gradientUnits="userSpaceOnUse">
    <stop stop-color="#008EFF"/>
    <stop offset="0.320247" stop-color="#88CCFF"/>
    <stop offset="1" stop-color="#BEE0FF"/>
    </linearGradient>
    <linearGradient id="paint23_linear_60_385" x1="550.366" y1="293.075" x2="531.931" y2="247.598" gradientUnits="userSpaceOnUse">
    <stop stop-color="#418CFF"/>
    <stop offset="1" stop-color="#0646BD"/>
    </linearGradient>
    <linearGradient id="paint24_linear_60_385" x1="550.363" y1="279.062" x2="544.189" y2="251.345" gradientUnits="userSpaceOnUse">
    <stop stop-color="#418CFF"/>
    <stop offset="1" stop-color="#0646BD"/>
    </linearGradient>
    <linearGradient id="paint25_linear_60_385" x1="223.579" y1="303.338" x2="73.1359" y2="303.338" gradientUnits="userSpaceOnUse">
    <stop stop-color="#008EFF"/>
    <stop offset="0.753096" stop-color="#88CCFF"/>
    <stop offset="1" stop-color="#BEE0FF"/>
    </linearGradient>
    <linearGradient id="paint26_linear_60_385" x1="156.253" y1="303.331" x2="81.0307" y2="303.331" gradientUnits="userSpaceOnUse">
    <stop stop-color="#008EFF"/>
    <stop offset="0.753096" stop-color="#88CCFF"/>
    <stop offset="1" stop-color="#BEE0FF"/>
    </linearGradient>
    <linearGradient id="paint27_linear_60_385" x1="158.398" y1="324.641" x2="145.902" y2="324.641" gradientUnits="userSpaceOnUse">
    <stop stop-color="#008EFF"/>
    <stop offset="0.753096" stop-color="#88CCFF"/>
    <stop offset="1" stop-color="#BEE0FF"/>
    </linearGradient>
    <linearGradient id="paint28_linear_60_385" x1="272.45" y1="280.285" x2="80.0308" y2="280.285" gradientUnits="userSpaceOnUse">
    <stop stop-color="#008EFF"/>
    <stop offset="0.320247" stop-color="#88CCFF"/>
    <stop offset="1" stop-color="#BEE0FF"/>
    </linearGradient>
    <linearGradient id="paint29_linear_60_385" x1="145.749" y1="293.075" x2="127.314" y2="247.598" gradientUnits="userSpaceOnUse">
    <stop stop-color="#418CFF"/>
    <stop offset="1" stop-color="#0646BD"/>
    </linearGradient>
    </defs>
    </svg>
    