<svg width="263" height="236" viewBox="0 0 263 236" fill="none" xmlns="http://www.w3.org/2000/svg">
    <path d="M32.2962 228.568V232.141C32.2962 234.156 34.2007 235.789 36.5497 235.789H227.617C229.968 235.789 231.871 234.156 231.871 232.141V228.568H32.2962Z" fill="#939598"/>
    <path d="M31.0486 226.144H233.259L206.798 202.925H62.4633L31.0486 226.144Z" fill="#AFB1B4"/>
    <path d="M213.746 216.406H52.464L65.219 206.98H203.002L213.746 216.406Z" fill="#C5C6C8"/>
    <path d="M157.968 224.721H108.185L112.121 219.091H154.653L157.968 224.721Z" fill="#C5C6C8"/>
    <path d="M233.259 226.142H31.0487V231.007H233.259V226.142Z" fill="#BCBEC0"/>
    <path d="M208.429 200.794C208.429 202.809 206.796 204.442 204.779 204.442H64.4995C62.4851 204.442 60.8498 202.809 60.8498 200.794V111.192C60.8498 109.178 62.4851 107.544 64.4995 107.544H204.779C206.796 107.544 208.429 109.178 208.429 111.192V200.794Z" fill="#E7E8E9"/>
    <path d="M206.778 199.301C206.778 201.248 205.182 202.828 203.209 202.828H66.0129C64.0418 202.828 62.4438 201.248 62.4438 199.301V112.7C62.4438 110.751 64.0418 109.173 66.0129 109.173H203.209C205.182 109.173 206.778 110.751 206.778 112.7V199.301Z" fill="#D1D3D4"/>
    <path d="M197.916 116.866H70.206V193.495H197.916V116.866Z" fill="#F15A29"/>
    <path d="M114.354 193.495H70.206V116.866H174.725C169.676 126.745 163.978 136.29 157.764 145.425C148.406 159.182 137.646 172.005 125.628 183.513C122.002 186.984 118.233 190.306 114.354 193.495Z" fill="#F68B42"/>
    <path d="M102.025 202.828H66.0129C64.0418 202.828 62.4438 201.249 62.4438 199.301V112.7C62.4438 110.751 64.0418 109.173 66.0129 109.173H178.44C177.227 111.762 175.969 114.329 174.667 116.874H70.1484V193.503H114.296C111.95 195.432 109.565 197.31 107.147 199.143C105.475 200.41 103.768 201.647 102.025 202.828Z" fill="#E5E6E7"/>
    <path d="M137.99 113.175C137.99 114.268 137.105 115.152 136.012 115.152C134.921 115.152 134.036 114.268 134.036 113.175C134.036 112.084 134.921 111.2 136.012 111.2C137.105 111.2 137.99 112.084 137.99 113.175Z" fill="#939598"/>
    <path d="M221.394 150.496C221.394 153.299 219.1 155.594 216.297 155.594H136.153C133.35 155.594 131.056 153.299 131.056 150.496V139.636C131.056 136.832 133.35 134.538 136.153 134.538H216.297C219.1 134.538 221.394 136.832 221.394 139.636V150.496Z" fill="white"/>
    <path d="M221.396 150.498H220.631C220.631 151.689 220.146 152.769 219.358 153.558C218.569 154.346 217.489 154.831 216.299 154.831H136.155C134.964 154.831 133.884 154.346 133.095 153.558C132.307 152.769 131.822 151.689 131.822 150.498V139.638C131.822 138.447 132.307 137.367 133.095 136.578C133.884 135.79 134.964 135.304 136.155 135.304H216.299C217.489 135.304 218.569 135.79 219.358 136.578C220.146 137.367 220.631 138.447 220.631 139.638V150.498H222.16V139.638C222.157 136.408 219.527 133.779 216.299 133.776H136.155C132.926 133.779 130.296 136.408 130.294 139.638V150.498C130.296 153.727 132.926 156.357 136.155 156.359H216.299C219.527 156.357 222.157 153.727 222.16 150.498H221.396Z" fill="#121F44"/>
    <path d="M143.568 141.454L145.275 147.305L146.829 141.866C146.996 141.297 147.118 140.908 147.199 140.701C147.279 140.493 147.429 140.294 147.65 140.106C147.87 139.917 148.173 139.823 148.557 139.823C148.946 139.823 149.252 139.917 149.472 140.106C149.693 140.294 149.848 140.499 149.937 140.72C150.027 140.94 150.152 141.322 150.312 141.866L151.866 147.305L153.592 141.454C153.708 141.031 153.8 140.726 153.871 140.537C153.941 140.349 154.059 140.182 154.225 140.039C154.391 139.895 154.631 139.823 154.945 139.823C155.258 139.823 155.53 139.932 155.76 140.149C155.991 140.367 156.106 140.623 156.106 140.916C156.106 141.185 156.007 141.591 155.808 142.135L153.669 148.408C153.484 148.939 153.34 149.323 153.238 149.559C153.135 149.796 152.974 150.007 152.753 150.192C152.532 150.378 152.23 150.47 151.846 150.47C151.45 150.47 151.138 150.371 150.911 150.173C150.684 149.975 150.516 149.732 150.408 149.444C150.298 149.156 150.18 148.782 150.053 148.322L148.557 143.219L147.108 148.322C146.916 149.032 146.708 149.567 146.484 149.928C146.26 150.29 145.867 150.47 145.305 150.47C145.017 150.47 144.772 150.414 144.57 150.302C144.369 150.19 144.201 150.031 144.067 149.823C143.933 149.615 143.814 149.369 143.712 149.084C143.609 148.8 143.53 148.574 143.472 148.408L141.352 142.135C141.141 141.546 141.036 141.14 141.036 140.916C141.036 140.635 141.147 140.383 141.371 140.159C141.595 139.935 141.87 139.823 142.197 139.823C142.631 139.823 142.925 139.946 143.079 140.192C143.232 140.439 143.395 140.859 143.568 141.454Z" fill="#121F44"/>
    <path d="M159.508 141.454L161.215 147.305L162.769 141.866C162.936 141.297 163.058 140.908 163.139 140.701C163.219 140.493 163.369 140.294 163.59 140.106C163.81 139.917 164.113 139.823 164.496 139.823C164.886 139.823 165.192 139.917 165.412 140.106C165.633 140.294 165.788 140.499 165.877 140.72C165.967 140.94 166.092 141.322 166.252 141.866L167.806 147.305L169.532 141.454C169.647 141.031 169.74 140.726 169.81 140.537C169.881 140.349 169.999 140.182 170.165 140.039C170.331 139.895 170.571 139.823 170.884 139.823C171.198 139.823 171.47 139.932 171.7 140.149C171.931 140.367 172.045 140.623 172.045 140.916C172.045 141.185 171.947 141.591 171.748 142.135L169.609 148.408C169.423 148.939 169.28 149.323 169.177 149.559C169.075 149.796 168.913 150.007 168.693 150.192C168.472 150.378 168.17 150.47 167.787 150.47C167.39 150.47 167.078 150.371 166.852 150.173C166.624 149.975 166.456 149.732 166.348 149.444C166.239 149.156 166.121 148.782 165.993 148.322L164.496 143.219L163.048 148.322C162.856 149.032 162.648 149.567 162.424 149.928C162.2 150.29 161.807 150.47 161.245 150.47C160.956 150.47 160.712 150.414 160.51 150.302C160.309 150.19 160.141 150.031 160.007 149.823C159.873 149.615 159.754 149.369 159.651 149.084C159.55 148.8 159.47 148.574 159.412 148.408L157.293 142.135C157.081 141.546 156.976 141.14 156.976 140.916C156.976 140.635 157.087 140.383 157.311 140.159C157.535 139.935 157.81 139.823 158.136 139.823C158.571 139.823 158.865 139.946 159.019 140.192C159.172 140.439 159.336 140.859 159.508 141.454Z" fill="#121F44"/>
    <path d="M175.518 141.454L177.225 147.305L178.779 141.866C178.945 141.297 179.068 140.908 179.149 140.701C179.229 140.493 179.379 140.294 179.599 140.106C179.82 139.917 180.122 139.823 180.506 139.823C180.896 139.823 181.201 139.917 181.422 140.106C181.642 140.294 181.798 140.499 181.887 140.72C181.977 140.94 182.101 141.322 182.261 141.866L183.815 147.305L185.542 141.454C185.657 141.031 185.75 140.726 185.82 140.537C185.89 140.349 186.008 140.182 186.175 140.039C186.341 139.895 186.581 139.823 186.895 139.823C187.208 139.823 187.48 139.932 187.71 140.149C187.94 140.367 188.055 140.623 188.055 140.916C188.055 141.185 187.956 141.591 187.758 142.135L185.619 148.408C185.433 148.939 185.289 149.323 185.187 149.559C185.085 149.796 184.923 150.007 184.703 150.192C184.482 150.378 184.18 150.47 183.796 150.47C183.399 150.47 183.088 150.371 182.861 150.173C182.634 149.975 182.466 149.732 182.357 149.444C182.248 149.156 182.13 148.782 182.002 148.322L180.506 143.219L179.057 148.322C178.866 149.032 178.658 149.567 178.434 149.928C178.21 150.29 177.817 150.47 177.254 150.47C176.966 150.47 176.722 150.414 176.52 150.302C176.319 150.19 176.151 150.031 176.017 149.823C175.882 149.615 175.764 149.369 175.662 149.084C175.559 148.8 175.48 148.574 175.422 148.408L173.302 142.135C173.091 141.546 172.985 141.14 172.985 140.916C172.985 140.635 173.097 140.383 173.321 140.159C173.545 139.935 173.82 139.823 174.146 139.823C174.581 139.823 174.875 139.946 175.029 140.192C175.182 140.439 175.345 140.859 175.518 141.454Z" fill="#121F44"/>
    <path d="M190.035 138.194V152.459H191.563V138.194" fill="#121F44"/>
    <path d="M223.616 156.866C225.012 156.554 225.15 155.694 223.93 154.954L198.875 139.779C197.652 139.038 196.966 139.559 197.348 140.935L205.188 169.16C205.571 170.535 206.438 170.632 207.115 169.375L209.61 164.745C210.288 163.487 211.548 163.39 212.409 164.528L220.194 174.796C221.056 175.934 222.691 176.158 223.83 175.295L224.803 174.561C225.94 173.698 226.165 172.061 225.302 170.923L217.52 160.654C216.657 159.516 217.091 158.33 218.485 158.018L223.616 156.866Z" fill="#121F44"/>
    <path d="M197.838 184.189C193.842 176.504 183.514 176.804 180.227 182.739C179.826 175.574 167.359 171.578 163.441 180.906C164.763 170.04 150.929 166.044 145.47 172.807C143.425 164.35 130.64 161.126 123.979 172.183C126.643 161.433 112.81 152.825 103.692 161.023C89.7545 146.37 103.935 119.46 105.374 113.71C103.318 113.42 102.13 111.801 100.834 110.334C97.1132 113.418 85.7796 135.246 83.9131 139.812C79.6097 150.34 74.8705 147.165 74.8705 147.165C68.8505 143.911 55.0167 153.748 64.3452 165.692C58.09 164.2 55.6317 174.96 62.424 179.263C52.5571 181.415 57.1684 195.249 70.1279 193.505H197.838V184.189Z" fill="white"/>
    <path d="M123.461 111.594C114.258 123.227 93.9198 127.919 93.9198 127.919C93.9198 127.919 93.3267 102.925 100.709 93.5945C108.091 84.2627 125.332 85.85 125.332 85.85C125.332 85.85 132.664 99.963 123.461 111.594Z" fill="#FCB116"/>
    <path d="M122.156 106.116C115.746 114.218 101.608 117.509 101.608 117.509C101.608 117.509 101.228 100.126 106.37 93.6261C111.513 87.1263 123.491 88.2058 123.491 88.2058C123.491 88.2058 128.568 98.0128 122.156 106.116Z" fill="#FFC906"/>
    <path d="M141.202 121.995C134.887 116.999 135.361 99.7 135.361 99.7C135.361 99.7 160.924 76.2604 163.456 78.2628C171.558 84.6733 143.733 123.997 141.202 121.995Z" fill="#F26521"/>
    <path d="M164.735 80.3073C162.272 87.2308 158.821 93.8119 154.683 99.8785C151.708 104.239 148.709 108.887 145.246 112.878C143.274 115.15 141.085 117.132 138.472 118.352C139.203 119.836 140.102 121.104 141.215 121.984C143.549 123.831 167.401 90.522 164.735 80.3073Z" fill="#F5801F"/>
    <path d="M86.8434 78.9647C93.1579 83.9605 109.884 79.5205 109.884 79.5205C109.884 79.5205 126.814 49.2499 124.283 47.2475C116.18 40.8377 84.3125 76.9629 86.8434 78.9647Z" fill="#F26521"/>
    <path d="M121.993 46.4878C115.821 50.4761 110.209 55.3492 105.258 60.7708C101.698 64.6697 97.8658 68.6573 94.7785 72.9467C93.0213 75.3883 91.5959 77.9732 91.0102 80.7979C89.3976 80.4274 87.9569 79.845 86.8434 78.9641C84.5091 77.1169 111.438 46.2426 121.993 46.4878Z" fill="#F5801F"/>
    <path d="M134.512 103.199C133.033 105.068 130.635 105.634 129.156 104.464L106.385 86.4483C104.906 85.2774 104.904 82.8139 106.382 80.944L106.762 80.4649C108.24 78.5964 110.639 78.0313 112.119 79.2015L134.889 97.2175C136.368 98.3869 136.37 100.851 134.891 102.72L134.512 103.199Z" fill="#F26521"/>
    <path d="M188.821 5.45221C188.821 5.45221 158.02 0.143235 126.655 39.7862C111.31 59.1816 105.76 80.7813 105.76 80.7813L120.19 92.1982L134.62 103.614C134.62 103.614 154.363 93.2431 169.708 73.8484C201.072 34.2054 188.821 5.45221 188.821 5.45221Z" fill="white"/>
    <path d="M133.209 79.4419C130.381 78.433 127.203 81.0645 124.911 82.4206C123.92 83.007 121.535 84.593 120.564 83.1036C118.825 80.4428 120.877 75.2158 121.685 72.6176C123.714 66.1059 126.529 59.6847 129.316 53.4622C135.095 40.5606 144.314 30.3731 155.796 22.2641C161.177 18.4644 166.872 15.0299 172.83 12.2039C178.076 9.71831 183.867 8.56615 188.917 5.69743C188.857 5.53817 188.821 5.45221 188.821 5.45221C188.821 5.45221 158.02 0.143235 126.655 39.7862C111.31 59.1816 105.76 80.7813 105.76 80.7813L134.62 103.614C134.62 103.614 135.138 103.341 136.063 102.809C130.502 96.8995 129.064 87.3317 133.209 79.4419Z" fill="#D1D3D4"/>
    <path d="M190.292 31.1856C193.018 15.2074 188.864 5.45109 188.864 5.45109C188.864 5.45109 178.413 3.65389 163.491 9.9824L190.292 31.1856Z" fill="#F26521"/>
    <path d="M167.727 61.1891C161.709 68.7944 150.664 70.0832 143.058 64.0652C135.451 58.0459 134.165 47.0021 140.182 39.3962C146.201 31.7895 157.244 30.5008 164.852 36.5194C172.459 42.5374 173.746 53.5825 167.727 61.1891Z" fill="#F26521"/>
    <path d="M164.485 58.6349C159.875 64.4617 151.415 65.4479 145.588 60.838C142.514 58.4064 140.786 54.8973 140.517 51.2676C140.449 50.3193 140.477 49.3644 140.614 48.4188C140.676 47.9484 140.765 47.4852 140.882 47.0308C141.195 45.7673 141.694 44.5412 142.395 43.3837C142.686 42.8853 143.017 42.4048 143.384 41.9404C147.994 36.1143 156.459 35.1307 162.281 39.7374C165.172 42.0243 166.871 45.2622 167.287 48.6534C167.447 49.9581 167.417 51.2922 167.189 52.5956C167.113 53.0621 167.003 53.5232 166.875 53.975C166.616 54.88 166.26 55.7696 165.801 56.6192C165.433 57.3202 164.994 57.9912 164.485 58.6349Z" fill="#00B4A8"/>
    <path d="M166.347 52.4156L140.897 47.032C141.211 45.7686 141.71 44.5424 142.411 43.3849L167.043 48.5993C166.998 49.8867 166.767 51.1728 166.347 52.4156Z" fill="#61C7C8"/>
    <path d="M167.302 52.1779C167.467 51.0058 167.476 49.8196 167.333 48.6522L167.334 48.6528C167.401 49.1986 167.435 49.749 167.435 50.3001C167.434 50.9271 167.391 51.5549 167.302 52.1779Z" fill="#61C7C8"/>
    <path d="M164.258 56.3008L140.517 51.2757C140.493 50.9498 140.481 50.6233 140.481 50.2961C140.481 49.6724 140.523 49.0473 140.613 48.4269L165.8 53.7559C165.39 54.6415 164.877 55.4951 164.258 56.3008Z" fill="#61C7C8"/>
    <path d="M153.954 63.7503C151.031 63.7503 148.087 62.802 145.616 60.8476C144.926 60.3012 144.303 59.7008 143.75 59.0564C144.303 59.7001 144.926 60.3005 145.615 60.8462C148.086 62.8014 151.03 63.7496 153.954 63.7496C157.924 63.7496 161.857 61.9991 164.512 58.6432C165.021 57.9995 165.46 57.3285 165.828 56.6275C166.287 55.7778 166.643 54.8882 166.902 53.9833C166.963 53.7674 167.02 53.5488 167.071 53.3289C166.639 55.2108 165.791 57.0286 164.514 58.6439C161.857 62.0004 157.925 63.7503 153.954 63.7503ZM143.747 59.0537C143.744 59.0504 143.741 59.047 143.739 59.0437C143.741 59.047 143.745 59.0504 143.747 59.0537ZM167.198 52.7085C167.205 52.6739 167.211 52.6392 167.216 52.6039C167.241 52.4653 167.263 52.326 167.282 52.1868C167.258 52.3607 167.23 52.5346 167.198 52.7085Z" fill="#96471A"/>
    <path d="M153.951 63.744C151.028 63.744 148.084 62.7958 145.613 60.8406C144.923 60.2949 144.301 59.6945 143.748 59.0508C143.747 59.0501 143.746 59.0488 143.745 59.0481C143.743 59.0448 143.739 59.0414 143.737 59.0381C143.733 59.0341 143.729 59.0301 143.726 59.0255C141.84 56.8191 140.765 54.1076 140.551 51.3235C141.238 54.1256 142.825 56.7291 145.263 58.6576C147.734 60.6121 150.678 61.5603 153.601 61.5603C157.572 61.5603 161.504 59.8104 164.16 56.4546C164.201 56.402 164.243 56.3486 164.284 56.2953L165.826 56.6219C165.458 57.3229 165.019 57.9939 164.509 58.6376C161.855 61.9935 157.922 63.744 153.951 63.744ZM166.9 53.9777L165.825 53.7505C166.027 53.3133 166.204 52.8682 166.357 52.4171L167.214 52.5983C167.209 52.6336 167.203 52.6683 167.196 52.7029C167.159 52.9102 167.116 53.1174 167.069 53.3233C167.018 53.5432 166.961 53.7618 166.9 53.9777ZM167.311 48.6554L167.052 48.6008C167.071 48.0917 167.06 47.5825 167.021 47.0754C167.148 47.5959 167.246 48.1243 167.311 48.6554Z" fill="#00867F"/>
    <path d="M167.19 52.5978L166.332 52.4165C166.752 51.1737 166.983 49.8876 167.028 48.6002L167.286 48.6549C167.429 49.8223 167.42 51.0085 167.256 52.1806C167.236 52.3199 167.215 52.4592 167.19 52.5978Z" fill="#269096"/>
    <path d="M165.865 56.6175L164.322 56.291C164.941 55.4853 165.454 54.6317 165.864 53.7461L166.939 53.9733C166.68 54.8783 166.324 55.7679 165.865 56.6175Z" fill="#269096"/>
    <path d="M38.0686 46.1485V52.1365C38.0686 52.3417 38.2358 52.5083 38.4417 52.5083C38.647 52.5083 38.8136 52.3417 38.8136 52.1365V46.1485C38.8136 45.9426 38.647 45.776 38.4417 45.776C38.2358 45.776 38.0686 45.9426 38.0686 46.1485Z" fill="white"/>
    <path d="M41.3963 48.7561H35.4609C35.2557 48.7561 35.0884 48.9227 35.0884 49.1286C35.0884 49.3339 35.2557 49.5004 35.4609 49.5004H41.3963C41.6015 49.5004 41.7688 49.3339 41.7688 49.1286C41.7688 48.9227 41.6015 48.7561 41.3963 48.7561Z" fill="white"/>
    <path d="M2.9801 124.151V130.139C2.9801 130.345 3.1467 130.512 3.3526 130.512C3.55785 130.512 3.7251 130.345 3.7251 130.139V124.151C3.7251 123.945 3.55785 123.779 3.3526 123.779C3.1467 123.779 2.9801 123.945 2.9801 124.151Z" fill="white"/>
    <path d="M6.30852 126.776H0.372501C0.167259 126.776 0 126.943 0 127.149C0 127.354 0.167259 127.521 0.372501 127.521H6.30852C6.51377 127.521 6.68036 127.354 6.68036 127.149C6.68036 126.943 6.51377 126.776 6.30852 126.776Z" fill="white"/>
    <path d="M46.3327 92.2617H53.8307C54.0359 92.2617 54.2025 92.0951 54.2025 91.8898C54.2025 91.6839 54.0359 91.5173 53.8307 91.5173H46.3327C46.1268 91.5173 45.9602 91.6839 45.9602 91.8898C45.9602 92.0951 46.1268 92.2617 46.3327 92.2617Z" fill="white"/>
    <path d="M56.3819 92.2617H58.465C58.6702 92.2617 58.8368 92.0951 58.8368 91.8898C58.8368 91.6839 58.6702 91.5173 58.465 91.5173H56.3819C56.1767 91.5173 56.0094 91.6839 56.0094 91.8898C56.0094 92.0951 56.1767 92.2617 56.3819 92.2617Z" fill="white"/>
    <path d="M60.3324 92.2617H62.4154C62.6207 92.2617 62.7879 92.0951 62.7879 91.8898C62.7879 91.6839 62.6207 91.5173 62.4154 91.5173H60.3324C60.1271 91.5173 59.9599 91.6839 59.9599 91.8898C59.9599 92.0951 60.1271 92.2617 60.3324 92.2617Z" fill="white"/>
    <path d="M47.7882 94.8613H55.2868C55.4921 94.8613 55.6593 94.694 55.6593 94.4888C55.6593 94.2829 55.4921 94.1163 55.2868 94.1163H47.7882C47.5829 94.1163 47.4156 94.2829 47.4156 94.4888C47.4156 94.694 47.5829 94.8613 47.7882 94.8613Z" fill="white"/>
    <path d="M57.8374 94.8613H59.9204C60.1257 94.8613 60.2929 94.694 60.2929 94.4888C60.2929 94.2829 60.1257 94.1163 59.9204 94.1163H57.8374C57.6321 94.1163 57.4649 94.2829 57.4649 94.4888C57.4649 94.694 57.6321 94.8613 57.8374 94.8613Z" fill="white"/>
    <path d="M61.7878 94.8613H63.8695C64.0748 94.8613 64.2414 94.694 64.2414 94.4888C64.2414 94.2829 64.0748 94.1163 63.8695 94.1163H61.7878C61.5825 94.1163 61.4153 94.2829 61.4153 94.4888C61.4153 94.694 61.5825 94.8613 61.7878 94.8613Z" fill="white"/>
    <path d="M9.86725 180.054H17.3659C17.5712 180.054 17.7384 179.887 17.7384 179.682C17.7384 179.476 17.5712 179.31 17.3659 179.31H9.86725C9.66201 179.31 9.49475 179.476 9.49475 179.682C9.49475 179.887 9.66201 180.054 9.86725 180.054Z" fill="white"/>
    <path d="M19.9166 180.054H21.9997C22.2049 180.054 22.3722 179.887 22.3722 179.682C22.3722 179.476 22.2049 179.31 21.9997 179.31H19.9166C19.7114 179.31 19.5441 179.476 19.5441 179.682C19.5441 179.887 19.7114 180.054 19.9166 180.054Z" fill="white"/>
    <path d="M23.8669 180.054H25.9486C26.1539 180.054 26.3205 179.887 26.3205 179.682C26.3205 179.476 26.1539 179.31 25.9486 179.31H23.8669C23.6616 179.31 23.4944 179.476 23.4944 179.682C23.4944 179.887 23.6616 180.054 23.8669 180.054Z" fill="white"/>
    <path d="M11.3227 182.653H18.82C19.0253 182.653 19.1919 182.486 19.1919 182.28C19.1919 182.075 19.0253 181.909 18.82 181.909H11.3227C11.1175 181.909 10.9502 182.075 10.9502 182.28C10.9502 182.486 11.1175 182.653 11.3227 182.653Z" fill="white"/>
    <path d="M21.3719 182.653H23.455C23.6602 182.653 23.8268 182.486 23.8268 182.28C23.8268 182.075 23.6602 181.909 23.455 181.909H21.3719C21.166 181.909 20.9994 182.075 20.9994 182.28C20.9994 182.486 21.166 182.653 21.3719 182.653Z" fill="white"/>
    <path d="M25.3223 182.653H27.4054C27.6106 182.653 27.7772 182.486 27.7772 182.28C27.7772 182.075 27.6106 181.909 27.4054 181.909H25.3223C25.1171 181.909 24.9498 182.075 24.9498 182.28C24.9498 182.486 25.1171 182.653 25.3223 182.653Z" fill="white"/>
    <path d="M163.837 0.372501V6.3605C163.837 6.56574 164.004 6.733 164.21 6.733C164.416 6.733 164.582 6.56574 164.582 6.3605V0.372501C164.582 0.167259 164.416 0 164.21 0C164.004 0 163.837 0.167259 163.837 0.372501Z" fill="white"/>
    <path d="M167.165 2.99744H161.23C161.024 2.99744 160.857 3.16403 160.857 3.36927C160.857 3.57518 161.024 3.74177 161.23 3.74177H167.165C167.37 3.74177 167.537 3.57518 167.537 3.36927C167.537 3.16403 167.37 2.99744 167.165 2.99744Z" fill="white"/>
    <path d="M235.014 94.6557V100.644C235.014 100.849 235.181 101.016 235.386 101.016C235.591 101.016 235.759 100.849 235.759 100.644V94.6557C235.759 94.4498 235.591 94.2832 235.386 94.2832C235.181 94.2832 235.014 94.4498 235.014 94.6557Z" fill="white"/>
    <path d="M238.341 97.2806H232.406C232.201 97.2806 232.033 97.4479 232.033 97.6531C232.033 97.8584 232.201 98.0256 232.406 98.0256H238.341C238.546 98.0256 238.714 97.8584 238.714 97.6531C238.714 97.4479 238.546 97.2806 238.341 97.2806Z" fill="white"/>
    <path d="M217.182 40.595V46.5824C217.182 46.7883 217.348 46.9549 217.554 46.9549C217.759 46.9549 217.927 46.7883 217.927 46.5824V40.595C217.927 40.3891 217.759 40.2225 217.554 40.2225C217.348 40.2225 217.182 40.3891 217.182 40.595Z" fill="white"/>
    <path d="M220.509 43.22H214.574C214.368 43.22 214.202 43.3872 214.202 43.5925C214.202 43.7984 214.368 43.965 214.574 43.965H220.509C220.714 43.965 220.881 43.7984 220.881 43.5925C220.881 43.3872 220.714 43.22 220.509 43.22Z" fill="white"/>
    <path d="M82.2219 21.1435H89.7199C89.9251 21.1435 90.0924 20.9762 90.0924 20.771C90.0924 20.5658 89.9251 20.3985 89.7199 20.3985H82.2219C82.016 20.3985 81.8494 20.5658 81.8494 20.771C81.8494 20.9762 82.016 21.1435 82.2219 21.1435Z" fill="white"/>
    <path d="M92.2711 21.1435H94.3535C94.5587 21.1435 94.7253 20.9762 94.7253 20.771C94.7253 20.5658 94.5587 20.3985 94.3535 20.3985H92.2711C92.0659 20.3985 91.8986 20.5658 91.8986 20.771C91.8986 20.9762 92.0659 21.1435 92.2711 21.1435Z" fill="white"/>
    <path d="M96.2214 21.1435H98.3038C98.5097 21.1435 98.6763 20.9762 98.6763 20.771C98.6763 20.5658 98.5097 20.3985 98.3038 20.3985H96.2214C96.0155 20.3985 95.8489 20.5658 95.8489 20.771C95.8489 20.9762 96.0155 21.1435 96.2214 21.1435Z" fill="white"/>
    <path d="M83.6772 23.7418H91.1739C91.3798 23.7418 91.5463 23.5752 91.5463 23.3693C91.5463 23.164 91.3798 22.9974 91.1739 22.9974H83.6772C83.4713 22.9974 83.3047 23.164 83.3047 23.3693C83.3047 23.5752 83.4713 23.7418 83.6772 23.7418Z" fill="white"/>
    <path d="M93.7264 23.7418H95.8082C96.0134 23.7418 96.18 23.5752 96.18 23.3693C96.18 23.164 96.0134 22.9974 95.8082 22.9974H93.7264C93.5205 22.9974 93.3539 23.164 93.3539 23.3693C93.3539 23.5752 93.5205 23.7418 93.7264 23.7418Z" fill="white"/>
    <path d="M97.6768 23.7418H99.7599C99.9658 23.7418 100.132 23.5752 100.132 23.3693C100.132 23.164 99.9658 22.9974 99.7599 22.9974H97.6768C97.4716 22.9974 97.3043 23.164 97.3043 23.3693C97.3043 23.5752 97.4716 23.7418 97.6768 23.7418Z" fill="white"/>
    <path d="M189.575 72.9885H197.073C197.279 72.9885 197.446 72.8219 197.446 72.6167C197.446 72.4108 197.279 72.2442 197.073 72.2442H189.575C189.369 72.2442 189.203 72.4108 189.203 72.6167C189.203 72.8219 189.369 72.9885 189.575 72.9885Z" fill="white"/>
    <path d="M199.625 72.9885H201.707C201.912 72.9885 202.08 72.8219 202.08 72.6167C202.08 72.4108 201.912 72.2442 201.707 72.2442H199.625C199.419 72.2442 199.252 72.4108 199.252 72.6167C199.252 72.8219 199.419 72.9885 199.625 72.9885Z" fill="white"/>
    <path d="M203.575 72.9885H205.657C205.862 72.9885 206.029 72.8219 206.029 72.6167C206.029 72.4108 205.862 72.2442 205.657 72.2442H203.575C203.37 72.2442 203.202 72.4108 203.202 72.6167C203.202 72.8219 203.37 72.9885 203.575 72.9885Z" fill="white"/>
    <path d="M191.031 75.5881H198.531C198.736 75.5881 198.903 75.4209 198.903 75.2156C198.903 75.0104 198.736 74.8431 198.531 74.8431H191.031C190.825 74.8431 190.658 75.0104 190.658 75.2156C190.658 75.4209 190.825 75.5881 191.031 75.5881Z" fill="white"/>
    <path d="M201.08 75.5881H203.16C203.366 75.5881 203.533 75.4209 203.533 75.2156C203.533 75.0104 203.366 74.8431 203.16 74.8431H201.08C200.875 74.8431 200.708 75.0104 200.708 75.2156C200.708 75.4209 200.875 75.5881 201.08 75.5881Z" fill="white"/>
    <path d="M205.03 75.5881H207.112C207.317 75.5881 207.484 75.4209 207.484 75.2156C207.484 75.0104 207.317 74.8431 207.112 74.8431H205.03C204.825 74.8431 204.658 75.0104 204.658 75.2156C204.658 75.4209 204.825 75.5881 205.03 75.5881Z" fill="white"/>
    <path d="M229.053 180.808V186.796C229.053 187.001 229.22 187.168 229.426 187.168C229.631 187.168 229.798 187.001 229.798 186.796V180.808C229.798 180.602 229.631 180.436 229.426 180.436C229.22 180.436 229.053 180.602 229.053 180.808Z" fill="white"/>
    <path d="M232.38 183.433H226.446C226.24 183.433 226.073 183.6 226.073 183.806C226.073 184.011 226.24 184.178 226.446 184.178H232.38C232.586 184.178 232.753 184.011 232.753 183.806C232.753 183.6 232.586 183.433 232.38 183.433Z" fill="white"/>
    <path d="M245.089 144.051H252.586C252.791 144.051 252.958 143.884 252.958 143.678C252.958 143.473 252.791 143.306 252.586 143.306H245.089C244.883 143.306 244.716 143.473 244.716 143.678C244.716 143.884 244.883 144.051 245.089 144.051Z" fill="white"/>
    <path d="M255.138 144.051H257.22C257.425 144.051 257.592 143.884 257.592 143.678C257.592 143.473 257.425 143.306 257.22 143.306H255.138C254.933 143.306 254.766 143.473 254.766 143.678C254.766 143.884 254.933 144.051 255.138 144.051Z" fill="white"/>
    <path d="M259.088 144.051H261.171C261.377 144.051 261.543 143.884 261.543 143.678C261.543 143.473 261.377 143.306 261.171 143.306H259.088C258.883 143.306 258.716 143.473 258.716 143.678C258.716 143.884 258.883 144.051 259.088 144.051Z" fill="white"/>
    <path d="M246.544 146.649H254.041C254.247 146.649 254.413 146.482 254.413 146.277C254.413 146.071 254.247 145.904 254.041 145.904H246.544C246.339 145.904 246.172 146.071 246.172 146.277C246.172 146.482 246.339 146.649 246.544 146.649Z" fill="white"/>
    <path d="M256.593 146.649H258.676C258.882 146.649 259.048 146.482 259.048 146.277C259.048 146.071 258.882 145.904 258.676 145.904H256.593C256.388 145.904 256.221 146.071 256.221 146.277C256.221 146.482 256.388 146.649 256.593 146.649Z" fill="white"/>
    <path d="M260.544 146.649H262.628C262.833 146.649 263 146.482 263 146.277C263 146.071 262.833 145.904 262.628 145.904H260.544C260.338 145.904 260.171 146.071 260.171 146.277C260.171 146.482 260.338 146.649 260.544 146.649Z" fill="white"/>
    </svg>
    