<svg width="201" height="32" viewBox="0 0 201 32" fill="none" xmlns="http://www.w3.org/2000/svg">
    <path d="M28.5339 14.7671L16.4902 7.87094C15.9109 7.53909 15.1743 7.74032 14.8434 8.31841C14.512 8.89691 14.7127 9.63417 15.291 9.96532L27.3348 16.8615C27.5236 16.9699 27.73 17.0212 27.9332 17.0212C28.3516 17.0212 28.7585 16.8032 28.9815 16.4139C29.3129 15.8355 29.1122 15.0982 28.5339 14.7671Z" fill="white"/>
    <path d="M3.24593 16.8638L15.2901 23.7598C15.4789 23.868 15.6853 23.9194 15.8886 23.9194C16.3069 23.9194 16.7139 23.7013 16.9368 23.3122C17.2682 22.7336 17.0675 21.9963 16.4892 21.6651L4.44501 14.7691C3.86713 14.438 3.1296 14.6383 2.79828 15.2168C2.46735 15.7953 2.66757 16.5325 3.24593 16.8638Z" fill="white"/>
    <path d="M28.5329 21.6679L16.4892 14.772L6.27456 8.92302L15.8894 3.41771L27.3338 9.97023C27.9126 10.3016 28.6496 10.1009 28.9805 9.52267C29.3119 8.94427 29.1112 8.207 28.5329 7.87585L16.4892 0.979853C16.1176 0.767088 15.6612 0.76722 15.2901 0.979722L3.24593 7.87563C2.87037 8.09085 2.63867 8.49032 2.63867 8.92302C2.63867 9.35568 2.87037 9.75524 3.24593 9.97023L15.2901 16.8664L25.5047 22.7152L15.8894 28.2203L4.44501 21.6678C3.86713 21.3368 3.1296 21.5367 2.79828 22.1155C2.46735 22.6939 2.66757 23.4311 3.24593 23.7625L15.2901 30.6584C15.4759 30.7646 15.6827 30.818 15.8894 30.818C16.0966 30.818 16.3034 30.7646 16.4892 30.6584L28.5329 23.7623C28.9084 23.5473 29.1401 23.1478 29.1401 22.7152C29.1401 22.2825 28.9084 21.8829 28.5329 21.6679Z" fill="white"/>
    <path d="M60.6112 8.76V25H57.5952V18.04H49.1968V25H46.1808V8.76H49.1968V15.4648H57.5952V8.76H60.6112ZM71.6024 25.1624C70.3496 25.1624 69.2206 24.8917 68.2152 24.3504C67.2099 23.8091 66.4211 23.0589 65.8488 22.1C65.292 21.1256 65.0136 20.0275 65.0136 18.8056C65.0136 17.5837 65.292 16.4933 65.8488 15.5344C66.4211 14.5755 67.2099 13.8253 68.2152 13.284C69.2206 12.7427 70.3496 12.472 71.6024 12.472C72.8707 12.472 74.0075 12.7427 75.0128 13.284C76.0182 13.8253 76.7992 14.5755 77.356 15.5344C77.9283 16.4933 78.2144 17.5837 78.2144 18.8056C78.2144 20.0275 77.9283 21.1256 77.356 22.1C76.7992 23.0589 76.0182 23.8091 75.0128 24.3504C74.0075 24.8917 72.8707 25.1624 71.6024 25.1624ZM71.6024 22.68C72.6696 22.68 73.5512 22.3243 74.2472 21.6128C74.9432 20.9013 75.2912 19.9656 75.2912 18.8056C75.2912 17.6456 74.9432 16.7099 74.2472 15.9984C73.5512 15.2869 72.6696 14.9312 71.6024 14.9312C70.5352 14.9312 69.6536 15.2869 68.9576 15.9984C68.2771 16.7099 67.9368 17.6456 67.9368 18.8056C67.9368 19.9656 68.2771 20.9013 68.9576 21.6128C69.6536 22.3243 70.5352 22.68 71.6024 22.68ZM86.1656 25.1624C85.1602 25.1624 84.1781 25.0309 83.2192 24.768C82.2602 24.5051 81.4946 24.1725 80.9224 23.7704L82.036 21.5664C82.5928 21.9376 83.2578 22.2392 84.0312 22.4712C84.82 22.6877 85.5933 22.796 86.3512 22.796C88.0834 22.796 88.9496 22.3397 88.9496 21.4272C88.9496 20.9941 88.7253 20.6925 88.2768 20.5224C87.8437 20.3523 87.14 20.1899 86.1656 20.0352C85.1448 19.8805 84.3096 19.7027 83.66 19.5016C83.0258 19.3005 82.469 18.9525 81.9896 18.4576C81.5256 17.9472 81.2936 17.2435 81.2936 16.3464C81.2936 15.1709 81.7808 14.2352 82.7552 13.5392C83.745 12.8277 85.0752 12.472 86.7456 12.472C87.5962 12.472 88.4469 12.5725 89.2976 12.7736C90.1482 12.9592 90.8442 13.2144 91.3856 13.5392L90.272 15.7432C89.2202 15.1245 88.037 14.8152 86.7224 14.8152C85.8717 14.8152 85.2221 14.9467 84.7736 15.2096C84.3405 15.4571 84.124 15.7896 84.124 16.2072C84.124 16.6712 84.356 17.0037 84.82 17.2048C85.2994 17.3904 86.0341 17.5683 87.024 17.7384C88.0138 17.8931 88.8258 18.0709 89.46 18.272C90.0941 18.4731 90.6354 18.8133 91.084 19.2928C91.548 19.7723 91.78 20.4528 91.78 21.3344C91.78 22.4944 91.2773 23.4224 90.272 24.1184C89.2666 24.8144 87.8978 25.1624 86.1656 25.1624ZM103.075 24.3272C102.734 24.6056 102.317 24.8144 101.822 24.9536C101.342 25.0928 100.832 25.1624 100.291 25.1624C98.9295 25.1624 97.8778 24.8067 97.1354 24.0952C96.393 23.3837 96.0218 22.3475 96.0218 20.9864V15.024H93.9802V12.704H96.0218V9.8736H98.9218V12.704H102.239V15.024H98.9218V20.9168C98.9218 21.52 99.0687 21.984 99.3626 22.3088C99.6565 22.6181 100.082 22.7728 100.639 22.7728C101.288 22.7728 101.83 22.6027 102.263 22.2624L103.075 24.3272ZM106.81 12.6112H109.71V25H106.81V12.6112ZM108.272 10.5696C107.746 10.5696 107.305 10.4072 106.949 10.0824C106.594 9.74213 106.416 9.32453 106.416 8.8296C106.416 8.33467 106.594 7.9248 106.949 7.6C107.305 7.25973 107.746 7.0896 108.272 7.0896C108.798 7.0896 109.238 7.252 109.594 7.5768C109.95 7.88613 110.128 8.28053 110.128 8.76C110.128 9.2704 109.95 9.70347 109.594 10.0592C109.254 10.3995 108.813 10.5696 108.272 10.5696ZM121.896 12.472C123.458 12.472 124.711 12.9283 125.654 13.8408C126.598 14.7533 127.07 16.1067 127.07 17.9008V25H124.17V18.272C124.17 17.1893 123.914 16.3773 123.404 15.836C122.894 15.2792 122.167 15.0008 121.223 15.0008C120.156 15.0008 119.313 15.3256 118.694 15.9752C118.076 16.6093 117.766 17.5296 117.766 18.736V25H114.866V12.6112H117.627V14.212C118.107 13.6397 118.71 13.2067 119.437 12.9128C120.164 12.6189 120.984 12.472 121.896 12.472ZM144.508 12.6112V23.1208C144.508 27.4824 142.281 29.6632 137.826 29.6632C136.635 29.6632 135.506 29.5085 134.439 29.1992C133.372 28.9053 132.49 28.4723 131.794 27.9L133.093 25.7192C133.635 26.1677 134.315 26.5235 135.135 26.7864C135.97 27.0648 136.813 27.204 137.664 27.204C139.025 27.204 140.022 26.8947 140.657 26.276C141.291 25.6573 141.608 24.7139 141.608 23.4456V22.796C141.113 23.3373 140.51 23.7472 139.798 24.0256C139.087 24.304 138.306 24.4432 137.455 24.4432C136.28 24.4432 135.212 24.1957 134.253 23.7008C133.31 23.1904 132.56 22.4789 132.003 21.5664C131.462 20.6539 131.191 19.6099 131.191 18.4344C131.191 17.2589 131.462 16.2227 132.003 15.3256C132.56 14.4131 133.31 13.7093 134.253 13.2144C135.212 12.7195 136.28 12.472 137.455 12.472C138.352 12.472 139.164 12.6189 139.891 12.9128C140.633 13.2067 141.252 13.6552 141.747 14.2584V12.6112H144.508ZM137.896 21.984C138.994 21.984 139.891 21.6592 140.587 21.0096C141.298 20.3445 141.654 19.4861 141.654 18.4344C141.654 17.3981 141.298 16.5552 140.587 15.9056C139.891 15.256 138.994 14.9312 137.896 14.9312C136.782 14.9312 135.87 15.256 135.158 15.9056C134.462 16.5552 134.114 17.3981 134.114 18.4344C134.114 19.4861 134.462 20.3445 135.158 21.0096C135.87 21.6592 136.782 21.984 137.896 21.984ZM155.238 25.1624C153.986 25.1624 152.857 24.8917 151.851 24.3504C150.846 23.8091 150.057 23.0589 149.485 22.1C148.928 21.1256 148.65 20.0275 148.65 18.8056C148.65 17.5837 148.928 16.4933 149.485 15.5344C150.057 14.5755 150.846 13.8253 151.851 13.284C152.857 12.7427 153.986 12.472 155.238 12.472C156.507 12.472 157.643 12.7427 158.649 13.284C159.654 13.8253 160.435 14.5755 160.992 15.5344C161.564 16.4933 161.85 17.5837 161.85 18.8056C161.85 20.0275 161.564 21.1256 160.992 22.1C160.435 23.0589 159.654 23.8091 158.649 24.3504C157.643 24.8917 156.507 25.1624 155.238 25.1624ZM155.238 22.68C156.306 22.68 157.187 22.3243 157.883 21.6128C158.579 20.9013 158.927 19.9656 158.927 18.8056C158.927 17.6456 158.579 16.7099 157.883 15.9984C157.187 15.2869 156.306 14.9312 155.238 14.9312C154.171 14.9312 153.29 15.2869 152.594 15.9984C151.913 16.7099 151.573 17.6456 151.573 18.8056C151.573 19.9656 151.913 20.9013 152.594 21.6128C153.29 22.3243 154.171 22.68 155.238 22.68ZM168.734 14.4208C169.569 13.1216 171.039 12.472 173.142 12.472V15.2328C172.895 15.1864 172.671 15.1632 172.469 15.1632C171.34 15.1632 170.459 15.4957 169.825 16.1608C169.191 16.8104 168.873 17.7539 168.873 18.9912V25H165.973V12.6112H168.734V14.4208Z" fill="white"/>
    </svg>
    